<svg width="40" height="40" viewBox="0 0 40 40" fill="none" xmlns="http://www.w3.org/2000/svg">
<path d="M24.5801 12.7016C25.8186 14.9914 26.5204 18.426 26.2314 26.3151C31.8874 19.5708 33.6691 0.718672 28.6053 6.51946C26.025 9.47527 24.5801 12.7016 24.5801 12.7016Z" fill="#98BBCE"/>
<path d="M6.35315 26.8771C9.48164 21.8189 15.766 25.6654 20.3898 26.8935C23.7936 27.7976 15.9501 25.04 11.9677 22.714C7.79802 20.2786 8.25673 18.0201 8.39664 14.8457C8.49114 12.7016 10.2338 9.39202 10.5434 6.87333C10.7072 5.54113 10.6905 4.71903 10.3576 3.37631C9.90352 1.54453 11.1688 -0.385395 12.7108 0.0666287C16.2613 1.10741 23.1146 9.28794 24.9104 17.6766C25.8141 21.8983 25.9856 25.3531 24.7659 28.5632C23.4176 32.1118 20.4724 34.8911 18.2843 36.4523C15.7092 38.2896 12.9173 39.6996 10.8325 39.5955C8.87148 39.4976 7.67424 37.3465 6.29121 37.7429C5.11469 38.0801 3.23617 40.9769 2.2247 39.6579C1.02746 38.0967 4.97011 37.1809 5.69259 34.912C6.36547 32.7988 3.97167 30.7275 6.35315 26.8771Z" fill="#98BBCE"/>
<path d="M22.8462 36.827C21.5087 38.3465 19.8774 39.4428 19.8118 38.8253C19.7565 38.3049 20.5362 37.702 21.1742 36.827C21.6903 36.1193 21.9699 35.703 22.5159 34.7454C23.2876 33.3924 23.1081 33.6838 23.6306 32.5182C24.0879 31.4982 24.2674 31.0611 24.7659 30.1868C25.2407 29.3542 25.6742 28.5632 26.1696 27.8347C27.0047 26.6065 27.1604 26.4192 27.8623 25.316C28.2635 24.6852 28.2338 23.8172 28.7912 23.4217C29.242 23.1018 29.3225 23.2544 29.5549 23.0054C29.8852 22.6516 29.9709 22.3352 30.2155 21.694C30.5251 20.8822 30.7713 20.4505 31.2682 19.7374C31.8049 18.9672 32.2769 18.5119 32.8989 17.9264C33.5166 17.3451 33.7866 17.0522 34.3026 16.7191C34.5184 16.5799 34.915 16.5952 34.9838 16.844C35.0493 17.0812 34.9282 17.1725 34.8456 17.2347L34.8393 17.2395C34.3852 17.583 34.2152 17.3601 33.7453 17.6558C33.097 18.0638 32.3855 18.6777 31.9081 19.2794C31.1485 20.237 30.7934 20.8406 30.4838 21.694C30.3174 22.1527 30.0916 23.172 30.0916 23.172C30.0916 23.172 31.0824 21.9855 31.8462 21.361C32.7878 20.5911 33.704 19.9872 34.0549 19.7998C34.8497 19.3755 35.321 19.1962 36.0159 18.9464C36.3995 18.8085 37.0124 18.7382 36.9998 19.1545C36.9943 19.335 36.8829 19.3627 36.759 19.3835C36.1191 19.4911 35.8714 19.1962 34.8393 19.6749C33.7328 20.1882 32.9904 20.7157 32.032 21.5275C30.9999 22.4018 30.3501 23.2136 30.3806 23.5675C30.4146 23.9615 30.5251 23.9838 30.4632 24.3584C30.4032 24.7211 30.0503 25.2119 29.8026 25.4617C29.2455 26.0235 28.8737 26.2735 28.5022 27.0645C28.0487 28.0298 28.0259 28.1261 27.2636 29.6872C26.4435 31.3669 26.6444 31.3941 24.9724 34.0585C24.2742 35.1711 24.4769 34.9744 22.8462 36.827Z" fill="#98BBCE"/>
<path d="M24.5801 12.7016C25.8186 14.9914 26.5204 18.426 26.2314 26.3151C31.8874 19.5708 33.6691 0.718672 28.6053 6.51946C26.025 9.47527 24.5801 12.7016 24.5801 12.7016Z" stroke="#98BBCE"/>
<path d="M6.35315 26.8771C9.48164 21.8189 15.766 25.6654 20.3898 26.8935C23.7936 27.7976 15.9501 25.04 11.9677 22.714C7.79802 20.2786 8.25673 18.0201 8.39664 14.8457C8.49114 12.7016 10.2338 9.39202 10.5434 6.87333C10.7072 5.54113 10.6905 4.71903 10.3576 3.37631C9.90352 1.54453 11.1688 -0.385395 12.7108 0.0666287C16.2613 1.10741 23.1146 9.28794 24.9104 17.6766C25.8141 21.8983 25.9856 25.3531 24.7659 28.5632C23.4176 32.1118 20.4724 34.8911 18.2843 36.4523C15.7092 38.2896 12.9173 39.6996 10.8325 39.5955C8.87148 39.4976 7.67424 37.3465 6.29121 37.7429C5.11469 38.0801 3.23617 40.9769 2.2247 39.6579C1.02746 38.0967 4.97011 37.1809 5.69259 34.912C6.36547 32.7988 3.97167 30.7275 6.35315 26.8771Z" stroke="#98BBCE"/>
<path d="M22.8462 36.827C21.5087 38.3465 19.8774 39.4428 19.8118 38.8253C19.7565 38.3049 20.5362 37.702 21.1742 36.827C21.6903 36.1193 21.9699 35.703 22.5159 34.7454C23.2876 33.3924 23.1081 33.6838 23.6306 32.5182C24.0879 31.4982 24.2674 31.0611 24.7659 30.1868C25.2407 29.3542 25.6742 28.5632 26.1696 27.8347C27.0047 26.6065 27.1604 26.4192 27.8623 25.316C28.2635 24.6852 28.2338 23.8172 28.7912 23.4217C29.242 23.1018 29.3225 23.2544 29.5549 23.0054C29.8852 22.6516 29.9709 22.3352 30.2155 21.694C30.5251 20.8822 30.7713 20.4505 31.2682 19.7374C31.8049 18.9672 32.2769 18.5119 32.8989 17.9264C33.5166 17.3451 33.7866 17.0522 34.3026 16.7191C34.5184 16.5799 34.915 16.5952 34.9838 16.844C35.0493 17.0812 34.9282 17.1725 34.8456 17.2347L34.8393 17.2395C34.3852 17.583 34.2152 17.3601 33.7453 17.6558C33.097 18.0638 32.3855 18.6777 31.9081 19.2794C31.1485 20.237 30.7934 20.8406 30.4838 21.694C30.3174 22.1527 30.0916 23.172 30.0916 23.172C30.0916 23.172 31.0824 21.9855 31.8462 21.361C32.7878 20.5911 33.704 19.9872 34.0549 19.7998C34.8497 19.3755 35.321 19.1962 36.0159 18.9464C36.3995 18.8085 37.0124 18.7382 36.9998 19.1545C36.9943 19.335 36.8829 19.3627 36.759 19.3835C36.1191 19.4911 35.8714 19.1962 34.8393 19.6749C33.7328 20.1882 32.9904 20.7157 32.032 21.5275C30.9999 22.4018 30.3501 23.2136 30.3806 23.5675C30.4146 23.9615 30.5251 23.9838 30.4632 24.3584C30.4032 24.7211 30.0503 25.2119 29.8026 25.4617C29.2455 26.0235 28.8737 26.2735 28.5022 27.0645C28.0487 28.0298 28.0259 28.1261 27.2636 29.6872C26.4435 31.3669 26.6444 31.3941 24.9724 34.0585C24.2742 35.1711 24.4769 34.9744 22.8462 36.827Z" stroke="#98BBCE"/>
</svg>
