<svg width="402" height="456" viewBox="0 0 402 456" fill="none" xmlns="http://www.w3.org/2000/svg">
<path d="M259.058 145.163C273.213 171.153 281.234 210.135 277.931 299.676C342.57 223.129 362.932 9.15692 305.061 74.9958C275.572 108.544 259.058 145.163 259.058 145.163Z" fill="#98BBCE"/>
<path d="M50.7502 306.056C86.5045 248.645 158.325 292.302 211.169 306.241C250.07 316.503 160.43 285.204 114.917 258.804C67.2631 231.162 72.5055 205.528 74.1045 169.499C75.1845 145.163 95.1005 107.599 98.6392 79.0123C100.511 63.8919 100.32 54.561 96.516 39.3211C91.3259 18.5305 105.787 -3.37423 123.41 1.75624C163.986 13.5691 242.309 106.418 262.833 201.63C273.161 249.545 275.122 288.758 261.182 325.192C245.773 365.469 212.113 397.015 187.106 414.734C157.677 435.587 125.77 451.59 101.943 450.409C79.5312 449.298 65.8484 424.883 50.0424 429.382C36.5964 433.209 15.1276 466.087 3.56799 451.117C-10.1147 433.398 34.9441 423.003 43.201 397.251C50.891 373.267 23.5333 349.758 50.7502 306.056Z" fill="#98BBCE"/>
<path d="M239.242 418.986C223.956 436.233 205.313 448.675 204.564 441.667C203.932 435.761 212.842 428.918 220.134 418.986C226.032 410.954 229.227 406.229 235.468 395.361C244.287 380.004 242.235 383.312 248.207 370.081C253.433 358.505 255.485 353.543 261.182 343.62C266.608 334.17 271.562 325.192 277.224 316.923C286.768 302.984 288.548 300.858 296.569 288.336C301.154 281.178 300.815 271.326 307.185 266.837C312.337 263.206 313.258 264.938 315.913 262.112C319.688 258.095 320.668 254.505 323.462 247.227C327.001 238.013 329.815 233.113 335.494 225.019C341.628 216.278 347.022 211.11 354.131 204.465C361.19 197.867 364.275 194.542 370.173 190.762C372.639 189.181 377.172 189.355 377.958 192.18C378.707 194.871 377.323 195.907 376.379 196.614L376.306 196.668C371.116 200.567 369.173 198.037 363.803 201.394C356.394 206.024 348.263 212.992 342.807 219.822C334.126 230.689 330.068 237.541 326.529 247.227C324.627 252.434 322.047 264.002 322.047 264.002C322.047 264.002 333.371 250.535 342.099 243.447C352.861 234.709 363.331 227.854 367.342 225.728C376.425 220.912 381.811 218.877 389.753 216.042C394.137 214.477 401.142 213.679 400.998 218.404C400.935 220.452 399.662 220.767 398.246 221.003C390.933 222.224 388.102 218.877 376.306 224.311C363.66 230.136 355.176 236.123 344.223 245.337C332.427 255.26 325.001 264.474 325.35 268.491C325.738 272.964 327.001 273.216 326.293 277.468C325.608 281.584 321.575 287.155 318.744 289.99C312.377 296.367 308.128 299.204 303.882 308.182C298.7 319.138 298.439 320.231 289.727 337.95C280.354 357.014 282.65 357.323 263.541 387.564C255.562 400.192 257.879 397.96 239.242 418.986Z" fill="#98BBCE"/>
<path d="M259.058 145.163C273.213 171.153 281.234 210.135 277.931 299.676C342.57 223.129 362.932 9.15692 305.061 74.9958C275.572 108.544 259.058 145.163 259.058 145.163Z" stroke="#98BBCE"/>
<path d="M50.7502 306.056C86.5045 248.645 158.325 292.302 211.169 306.241C250.07 316.503 160.43 285.204 114.917 258.804C67.2631 231.162 72.5055 205.528 74.1045 169.499C75.1845 145.163 95.1005 107.599 98.6392 79.0123C100.511 63.8919 100.32 54.561 96.516 39.3211C91.3259 18.5305 105.787 -3.37423 123.41 1.75624C163.986 13.5691 242.309 106.418 262.833 201.63C273.161 249.545 275.122 288.758 261.182 325.192C245.773 365.469 212.113 397.015 187.106 414.734C157.677 435.587 125.77 451.59 101.943 450.409C79.5312 449.298 65.8484 424.883 50.0424 429.382C36.5964 433.209 15.1276 466.087 3.56799 451.117C-10.1147 433.398 34.9441 423.003 43.201 397.251C50.891 373.267 23.5333 349.758 50.7502 306.056Z" stroke="#98BBCE"/>
<path d="M239.242 418.986C223.956 436.233 205.313 448.675 204.564 441.667C203.932 435.761 212.842 428.918 220.134 418.986C226.032 410.954 229.227 406.229 235.468 395.361C244.287 380.004 242.235 383.312 248.207 370.081C253.433 358.505 255.485 353.543 261.182 343.62C266.608 334.17 271.562 325.192 277.224 316.923C286.768 302.984 288.548 300.858 296.569 288.336C301.154 281.178 300.815 271.326 307.185 266.837C312.337 263.206 313.258 264.938 315.913 262.112C319.688 258.095 320.668 254.505 323.462 247.227C327.001 238.013 329.815 233.113 335.494 225.019C341.628 216.278 347.022 211.11 354.131 204.465C361.19 197.867 364.275 194.542 370.173 190.762C372.639 189.181 377.172 189.355 377.958 192.18C378.707 194.871 377.323 195.907 376.379 196.614L376.306 196.668C371.116 200.567 369.173 198.037 363.803 201.394C356.394 206.024 348.263 212.992 342.807 219.822C334.126 230.689 330.068 237.541 326.529 247.227C324.627 252.434 322.047 264.002 322.047 264.002C322.047 264.002 333.371 250.535 342.099 243.447C352.861 234.709 363.331 227.854 367.342 225.728C376.425 220.912 381.811 218.877 389.753 216.042C394.137 214.477 401.142 213.679 400.998 218.404C400.935 220.452 399.662 220.767 398.246 221.003C390.933 222.224 388.102 218.877 376.306 224.311C363.66 230.136 355.176 236.123 344.223 245.337C332.427 255.26 325.001 264.474 325.35 268.491C325.738 272.964 327.001 273.216 326.293 277.468C325.608 281.584 321.575 287.155 318.744 289.99C312.377 296.367 308.128 299.204 303.882 308.182C298.7 319.138 298.439 320.231 289.727 337.95C280.354 357.014 282.65 357.323 263.541 387.564C255.562 400.192 257.879 397.96 239.242 418.986Z" stroke="#98BBCE"/>
</svg>
