<svg width="849" height="963" viewBox="0 0 849 963" fill="none" xmlns="http://www.w3.org/2000/svg">
<path d="M547.498 306.498C577.498 361.5 594.498 443.999 587.498 633.499C724.498 471.5 767.654 18.6623 644.998 158C582.498 229 547.498 306.498 547.498 306.498Z" fill="#98BBCE"/>
<path d="M106 647C181.78 525.5 334 617.893 446 647.393C528.448 669.109 338.46 602.871 241.998 547C140.998 488.5 152.11 434.249 155.498 358C157.787 306.498 199.998 227 207.498 166.5C211.465 134.5 211.062 114.753 202.998 82.5C191.998 38.4999 222.647 -7.85782 259.998 2.99999C345.998 27.9999 512 224.5 555.498 426C577.389 527.406 581.544 610.392 552 687.5C519.341 772.738 448 839.5 395 877C332.626 921.132 265 955 214.5 952.5C167 950.148 138 898.48 104.5 908C76.0019 916.099 30.4999 985.681 5.99985 954C-23 916.5 72.4999 894.5 90 840C106.299 789.242 48.3154 739.488 106 647Z" fill="#98BBCE"/>
<path d="M505.5 886C473.101 922.5 433.589 948.832 432 934C430.661 921.5 449.545 907.018 465 886C477.5 869 484.272 859 497.5 836C516.191 803.5 511.842 810.5 524.5 782.5C535.575 758 539.925 747.5 552 726.5C563.5 706.5 574 687.5 586 670C606.229 640.5 610 636 627 609.5C636.719 594.35 636 573.5 649.5 564C660.42 556.315 662.371 559.98 668 554C676 545.5 678.077 537.901 684 522.5C691.5 503 697.464 492.628 709.5 475.5C722.5 457 733.933 446.063 749 432C763.961 418.036 770.5 411 783 403C788.227 399.655 797.834 400.022 799.5 406C801.088 411.696 798.154 413.889 796.153 415.386L796 415.5C785 423.75 780.882 418.397 769.5 425.5C753.797 435.299 736.563 450.046 725 464.5C706.6 487.5 698 502 690.5 522.5C686.469 533.518 681 558 681 558C681 558 705 529.5 723.5 514.5C746.309 496.006 768.5 481.5 777 477C796.252 466.808 807.668 462.5 824.5 456.5C833.79 453.188 848.638 451.5 848.332 461.5C848.2 465.833 845.5 466.5 842.5 467C827 469.583 821 462.5 796 474C769.197 486.329 751.214 499 728 518.5C703 539.5 687.261 559 688 567.5C688.823 576.966 691.5 577.5 690 586.5C688.548 595.21 680 607 674 613C660.504 626.496 651.5 632.5 642.5 651.5C631.517 674.687 630.965 677 612.5 714.5C592.634 754.846 597.5 755.5 557 819.5C540.088 846.225 545 841.5 505.5 886Z" fill="#98BBCE"/>
<path d="M547.498 306.498C577.498 361.5 594.498 443.999 587.498 633.499C724.498 471.5 767.654 18.6623 644.998 158C582.498 229 547.498 306.498 547.498 306.498Z" stroke="#98BBCE"/>
<path d="M106 647C181.78 525.5 334 617.893 446 647.393C528.448 669.109 338.46 602.871 241.998 547C140.998 488.5 152.11 434.249 155.498 358C157.787 306.498 199.998 227 207.498 166.5C211.465 134.5 211.062 114.753 202.998 82.5C191.998 38.4999 222.647 -7.85782 259.998 2.99999C345.998 27.9999 512 224.5 555.498 426C577.389 527.406 581.544 610.392 552 687.5C519.341 772.738 448 839.5 395 877C332.626 921.132 265 955 214.5 952.5C167 950.148 138 898.48 104.5 908C76.0019 916.099 30.4999 985.681 5.99985 954C-23 916.5 72.4999 894.5 90 840C106.299 789.242 48.3154 739.488 106 647Z" stroke="#98BBCE"/>
<path d="M505.5 886C473.101 922.5 433.589 948.832 432 934C430.661 921.5 449.545 907.018 465 886C477.5 869 484.272 859 497.5 836C516.191 803.5 511.842 810.5 524.5 782.5C535.575 758 539.925 747.5 552 726.5C563.5 706.5 574 687.5 586 670C606.229 640.5 610 636 627 609.5C636.719 594.35 636 573.5 649.5 564C660.42 556.315 662.371 559.98 668 554C676 545.5 678.077 537.901 684 522.5C691.5 503 697.464 492.628 709.5 475.5C722.5 457 733.933 446.063 749 432C763.961 418.036 770.5 411 783 403C788.227 399.655 797.834 400.022 799.5 406C801.088 411.696 798.154 413.889 796.153 415.386L796 415.5C785 423.75 780.882 418.397 769.5 425.5C753.797 435.299 736.563 450.046 725 464.5C706.6 487.5 698 502 690.5 522.5C686.469 533.518 681 558 681 558C681 558 705 529.5 723.5 514.5C746.309 496.006 768.5 481.5 777 477C796.252 466.808 807.668 462.5 824.5 456.5C833.79 453.188 848.638 451.5 848.332 461.5C848.2 465.833 845.5 466.5 842.5 467C827 469.583 821 462.5 796 474C769.197 486.329 751.214 499 728 518.5C703 539.5 687.261 559 688 567.5C688.823 576.966 691.5 577.5 690 586.5C688.548 595.21 680 607 674 613C660.504 626.496 651.5 632.5 642.5 651.5C631.517 674.687 630.965 677 612.5 714.5C592.634 754.846 597.5 755.5 557 819.5C540.088 846.225 545 841.5 505.5 886Z" stroke="#98BBCE"/>
</svg>
