<svg width="225" height="225" viewBox="0 0 225 225" fill="none" xmlns="http://www.w3.org/2000/svg">
<rect width="225" height="225" fill="#1F2937"/>
<path d="M89.2328 55.222C92.2143 60.6928 93.9039 68.8987 93.2082 87.7476C106.824 71.6341 111.113 26.5921 98.9228 40.4514C92.7112 47.5135 89.2328 55.222 89.2328 55.222Z" fill="#98BBCE"/>
<path d="M45.3545 89.0905C52.8858 77.0053 68.0143 86.1953 79.1454 89.1296C87.3395 91.2896 68.4575 84.7011 58.8706 79.1438C48.8328 73.325 49.937 67.9289 50.2738 60.3447C50.5013 55.222 54.6965 47.3146 55.4419 41.2969C55.8361 38.114 55.796 36.1498 54.9946 32.9418C53.9014 28.5652 56.9475 23.9542 60.6596 25.0342C69.2067 27.5208 85.7048 47.066 90.0278 67.1084C92.2034 77.1949 92.6164 85.4492 89.6802 93.1188C86.4344 101.597 79.3441 108.238 74.0767 111.968C67.8777 116.357 61.1567 119.726 56.1377 119.477C51.4169 119.243 48.5348 114.104 45.2054 115.051C42.3731 115.857 37.8509 122.778 35.4159 119.627C32.5338 115.897 42.025 113.708 43.7643 108.287C45.3841 103.239 39.6215 98.2899 45.3545 89.0905Z" fill="#98BBCE"/>
<path d="M85.0588 112.863C81.8388 116.493 77.9119 119.113 77.754 117.637C77.6209 116.394 79.4977 114.954 81.0337 112.863C82.276 111.172 82.9491 110.177 84.2637 107.89C86.1213 104.657 85.6891 105.353 86.9471 102.568C88.0478 100.131 88.4801 99.0868 89.6802 96.998C90.8231 95.0087 91.8667 93.1188 93.0593 91.3782C95.0697 88.4439 95.4445 87.9963 97.1341 85.3605C98.1 83.8535 98.0285 81.7797 99.3702 80.8348C100.456 80.0704 100.649 80.4349 101.209 79.8401C102.004 78.9946 102.21 78.2388 102.799 76.7069C103.544 74.7673 104.137 73.7357 105.333 72.032C106.625 70.1919 107.762 69.104 109.259 67.7052C110.746 66.3162 111.396 65.6164 112.638 64.8207C113.158 64.488 114.112 64.5245 114.278 65.1191C114.436 65.6857 114.144 65.9038 113.945 66.0526L113.93 66.064C112.837 66.8846 112.428 66.3522 111.296 67.0587C109.736 68.0334 108.023 69.5002 106.874 70.9379C105.045 73.2256 104.19 74.6679 103.445 76.7069C103.044 77.8028 102.501 80.238 102.501 80.238C102.501 80.238 104.886 77.4032 106.725 75.9112C108.992 74.0717 111.197 72.6288 112.042 72.1812C113.955 71.1674 115.09 70.7389 116.763 70.1421C117.686 69.8127 119.162 69.6448 119.131 70.6395C119.118 71.0705 118.85 71.1368 118.552 71.1865C117.011 71.4435 116.415 70.7389 113.93 71.8828C111.266 73.1091 109.479 74.3695 107.172 76.309C104.687 78.3978 103.123 80.3374 103.197 81.1829C103.278 82.1245 103.544 82.1776 103.395 83.0728C103.251 83.9391 102.401 85.1118 101.805 85.7086C100.464 87.051 99.569 87.6482 98.6745 89.5381C97.583 91.8443 97.5281 92.0744 95.693 95.8044C93.7186 99.8175 94.2022 99.8825 90.1771 106.248C88.4963 108.907 88.9845 108.437 85.0588 112.863Z" fill="#98BBCE"/>
<path d="M126.605 154.576L101.482 91.3935C101.482 91.3935 103.943 89.3687 105.247 87.6971C106.447 86.1596 107.917 83.3845 107.917 83.3845H120.786V86.0542C120.786 86.0542 116.292 85.9209 114.762 87.5602C113.804 88.587 114.163 90.5675 114.625 91.7358L132.286 136.367C132.286 136.367 131.533 138.968 148.578 92.7626C149.184 91.1197 149.331 88.9977 148.236 87.5602C147.097 86.065 141.459 86.0542 141.459 86.0542V83.3845H162.885V86.0542C162.885 86.0542 159.702 85.9173 158.025 87.3548C156.154 88.9588 154.328 93.5156 154.328 93.5156L129.617 154.576H126.605Z" fill="white"/>
<path d="M190.331 154.571H159.135V151.897C159.135 151.897 164.129 151.897 166.181 150.8C167.863 149.901 168.028 146.574 167.413 144.766C161.392 127.077 162.076 129.408 162.076 129.408H135.464L137.037 124.746H160.161L149.283 93.0009L158.724 86.0759H162.904C162.904 86.0759 160.549 86.1178 159.977 87.2264C159.4 88.3454 160.107 89.7927 160.456 90.7468C162.695 96.8583 167.827 110.966 179.59 143.532C180.867 147.068 182.121 149.086 185.337 150.8C187.165 151.775 190.331 151.897 190.331 151.897V154.571Z" fill="white"/>
<path d="M54.3047 180.787C54.1953 180.787 54.1172 180.74 54.0703 180.646L49.2656 168.529C48.875 167.498 48.5234 166.748 48.2109 166.279C48.1016 166.107 47.875 165.974 47.5312 165.881C47.1875 165.787 46.9141 165.74 46.7109 165.74C46.6484 165.74 46.6172 165.638 46.6172 165.435C46.6172 165.248 46.6484 165.123 46.7109 165.06C47.0859 165.076 47.5078 165.099 47.9766 165.131C48.4453 165.162 48.9219 165.177 49.4062 165.177C49.5938 165.177 49.9297 165.17 50.4141 165.154C50.8984 165.123 51.5312 165.092 52.3125 165.06C52.3438 165.123 52.3516 165.256 52.3359 165.459C52.3359 165.646 52.3125 165.74 52.2656 165.74C51.9688 165.74 51.6641 165.802 51.3516 165.927C51.0391 166.052 50.8828 166.248 50.8828 166.513C50.8828 166.967 51.8672 169.599 53.8359 174.412C54.0547 174.943 54.2422 175.42 54.3984 175.842C54.5703 176.248 54.7188 176.599 54.8438 176.896C54.8906 176.974 54.9531 176.998 55.0312 176.967C55.125 176.92 55.1875 176.857 55.2188 176.779L58.7344 168.295C59.0312 167.545 59.1797 166.998 59.1797 166.654C59.1797 166.42 59.0781 166.24 58.875 166.115C58.6719 165.974 58.4375 165.881 58.1719 165.834C57.9219 165.771 57.7109 165.74 57.5391 165.74C57.4766 165.74 57.4453 165.638 57.4453 165.435C57.4453 165.248 57.4766 165.123 57.5391 165.06C58.2734 165.092 58.8438 165.123 59.25 165.154C59.6719 165.17 59.9375 165.177 60.0469 165.177L62.4141 165.06C62.4453 165.185 62.4609 165.302 62.4609 165.412C62.4609 165.631 62.4297 165.74 62.3672 165.74C61.6641 165.74 61.1953 165.959 60.9609 166.396C60.7891 166.724 60.6016 167.092 60.3984 167.498C60.2109 167.888 60.0156 168.326 59.8125 168.81L55.125 180.013C54.9219 180.529 54.6484 180.787 54.3047 180.787ZM62.9766 180.646C62.9141 180.584 62.8828 180.451 62.8828 180.248C62.8828 180.06 62.9141 179.967 62.9766 179.967C63.1016 179.967 63.2734 179.943 63.4922 179.896C63.7109 179.849 63.9141 179.787 64.1016 179.709C64.2891 179.631 64.3906 179.56 64.4062 179.498C64.4688 179.279 64.5078 179.029 64.5234 178.748C64.5547 178.467 64.5703 178.17 64.5703 177.857V173.427C64.5703 172.834 64.4609 172.412 64.2422 172.162C64.0859 171.959 63.8984 171.834 63.6797 171.787C63.4609 171.724 63.2734 171.693 63.1172 171.693C62.9609 171.677 62.8828 171.654 62.8828 171.623C62.8828 171.248 62.9297 171.052 63.0234 171.037C63.8516 170.912 64.4844 170.81 64.9219 170.732C65.3594 170.638 65.75 170.552 66.0938 170.474L66.375 170.404C66.4375 170.388 66.4766 170.451 66.4922 170.592C66.5078 170.732 66.5078 170.834 66.4922 170.896C66.4609 171.209 66.4297 171.506 66.3984 171.787C66.3828 172.068 66.375 172.334 66.375 172.584V177.412C66.375 177.865 66.3906 178.263 66.4219 178.607C66.4531 178.951 66.5 179.248 66.5625 179.498C66.5938 179.56 66.7031 179.631 66.8906 179.709C67.0781 179.787 67.2812 179.849 67.5 179.896C67.7188 179.943 67.875 179.967 67.9688 179.967C68.0156 179.967 68.0469 180.06 68.0625 180.248C68.0781 180.435 68.0703 180.568 68.0391 180.646L65.5312 180.529L62.9766 180.646ZM65.2969 167.849C64.9844 167.849 64.7109 167.732 64.4766 167.498C64.2422 167.263 64.125 166.99 64.125 166.677C64.125 166.349 64.2422 166.076 64.4766 165.857C64.7109 165.623 64.9844 165.506 65.2969 165.506C65.625 165.506 65.8984 165.623 66.1172 165.857C66.3516 166.076 66.4688 166.349 66.4688 166.677C66.4688 166.99 66.3516 167.263 66.1172 167.498C65.8984 167.732 65.625 167.849 65.2969 167.849ZM73.3594 180.74C72.5781 180.74 71.9219 180.482 71.3906 179.967C70.875 179.451 70.6172 178.717 70.6172 177.763V171.81H69.2578C69.1797 171.81 69.1406 171.646 69.1406 171.318C69.1406 171.224 69.1484 171.17 69.1641 171.154C69.6328 170.935 70.125 170.521 70.6406 169.912C71 169.49 71.2656 169.123 71.4375 168.81C71.625 168.498 71.7188 168.31 71.7188 168.248C72.1875 168.248 72.4219 168.287 72.4219 168.365V170.685L74.2734 170.709H75.5859C75.7109 170.709 75.7734 170.779 75.7734 170.92C75.7734 171.217 75.6953 171.513 75.5391 171.81H72.4219V177.552C72.4219 178.177 72.5781 178.677 72.8906 179.052C73.2188 179.427 73.6406 179.615 74.1562 179.615C74.6406 179.615 75.125 179.467 75.6094 179.17C75.6562 179.138 75.7266 179.209 75.8203 179.381C75.9141 179.537 75.9531 179.623 75.9375 179.638C75.7031 179.888 75.3438 180.138 74.8594 180.388C74.375 180.623 73.875 180.74 73.3594 180.74ZM79.5 180.74C78.7812 180.74 78.1875 180.552 77.7188 180.177C77.25 179.787 77.0156 179.209 77.0156 178.443C77.0156 177.506 77.625 176.724 78.8438 176.099C79.375 175.834 79.8984 175.623 80.4141 175.467C80.9453 175.31 81.4766 175.131 82.0078 174.927C82.1484 174.881 82.2188 174.763 82.2188 174.576V172.818C82.2188 172.318 82.0625 171.935 81.75 171.67C81.4375 171.388 81.0625 171.248 80.625 171.248C80.1562 171.248 79.7656 171.412 79.4531 171.74C79.1406 172.052 78.9844 172.467 78.9844 172.982C78.9844 173.529 78.6641 173.802 78.0234 173.802C77.5703 173.802 77.2656 173.654 77.1094 173.357C77.1094 173.029 77.2422 172.693 77.5078 172.349C77.7891 171.99 78.1484 171.662 78.5859 171.365C79.0234 171.068 79.5 170.826 80.0156 170.638C80.5469 170.451 81.0703 170.357 81.5859 170.357C82.4453 170.357 83.0625 170.568 83.4375 170.99C83.8125 171.396 84 172.06 84 172.982V178.396C84 178.724 84.0859 178.998 84.2578 179.217C84.4297 179.435 84.6641 179.545 84.9609 179.545C85.1641 179.545 85.4375 179.435 85.7812 179.217C85.8438 179.217 85.875 179.279 85.875 179.404C85.875 179.607 85.8359 179.771 85.7578 179.896C85.1172 180.443 84.5703 180.717 84.1172 180.717C83.7578 180.717 83.4141 180.568 83.0859 180.271C82.7578 179.974 82.5312 179.662 82.4062 179.334C82.3281 179.396 82.2266 179.482 82.1016 179.592C81.9922 179.685 81.8984 179.763 81.8203 179.826C81.4922 180.076 81.1328 180.295 80.7422 180.482C80.3672 180.654 79.9531 180.74 79.5 180.74ZM80.3906 179.404C80.8281 179.404 81.2422 179.279 81.6328 179.029C82.0234 178.779 82.2188 178.513 82.2188 178.232V175.818C81.8125 175.974 81.4219 176.115 81.0469 176.24C80.6875 176.365 80.3984 176.467 80.1797 176.545C79.8984 176.654 79.625 176.849 79.3594 177.131C79.1094 177.412 78.9844 177.732 78.9844 178.092C78.9844 178.56 79.125 178.896 79.4062 179.099C79.7031 179.302 80.0312 179.404 80.3906 179.404ZM86.4609 180.646C86.3984 180.584 86.3672 180.451 86.3672 180.248C86.3672 180.06 86.3984 179.967 86.4609 179.967C86.5859 179.967 86.7578 179.943 86.9766 179.896C87.1953 179.849 87.3984 179.787 87.5859 179.709C87.7734 179.631 87.875 179.56 87.8906 179.498C87.9531 179.279 87.9922 179.029 88.0078 178.748C88.0391 178.467 88.0547 178.17 88.0547 177.857V167.709C88.0547 167.177 88.0078 166.677 87.9141 166.209C87.8516 165.959 87.4531 165.834 86.7188 165.834H86.5078C86.4141 165.834 86.3672 165.748 86.3672 165.576C86.3672 165.326 86.4141 165.201 86.5078 165.201C87.4453 165.092 88.1406 164.967 88.5938 164.826C89.0469 164.685 89.3594 164.56 89.5312 164.451L89.7656 164.31H89.8125C89.875 164.31 89.9375 164.357 90 164.451C90.0625 164.529 90.1016 164.607 90.1172 164.685C89.9453 165.201 89.8594 165.881 89.8594 166.724V177.412C89.8594 177.865 89.875 178.263 89.9062 178.607C89.9375 178.951 89.9844 179.248 90.0469 179.498C90.0781 179.56 90.1875 179.631 90.375 179.709C90.5625 179.787 90.7656 179.849 90.9844 179.896C91.2031 179.943 91.3594 179.967 91.4531 179.967C91.5 179.967 91.5312 180.06 91.5469 180.248C91.5625 180.435 91.5547 180.568 91.5234 180.646L89.0156 180.529L86.4609 180.646ZM103.078 180.646C101.688 180.646 100.578 180.31 99.75 179.638C98.9375 178.967 98.5312 178.045 98.5312 176.873C98.5312 175.857 98.875 175.013 99.5625 174.342C100.25 173.654 101.203 172.998 102.422 172.373C102.094 171.826 101.781 171.201 101.484 170.498C101.203 169.795 101.062 169.099 101.062 168.412C101.062 167.818 101.211 167.279 101.508 166.795C101.82 166.31 102.234 165.927 102.75 165.646C103.266 165.349 103.852 165.201 104.508 165.201C105.555 165.201 106.383 165.435 106.992 165.904C107.602 166.357 107.906 166.998 107.906 167.826C107.906 168.779 107.602 169.592 106.992 170.263C106.383 170.935 105.523 171.615 104.414 172.302C104.867 173.068 105.383 173.842 105.961 174.623C106.539 175.404 107.18 176.185 107.883 176.967C108.086 176.67 108.266 176.381 108.422 176.099C108.578 175.802 108.719 175.521 108.844 175.256C109.094 174.74 109.219 174.396 109.219 174.224C109.219 174.006 109.086 173.888 108.82 173.873C108.57 173.842 108.352 173.818 108.164 173.802C108.133 173.709 108.117 173.615 108.117 173.521C108.117 173.396 108.141 173.31 108.188 173.263H110.039C110.586 173.263 111.07 173.248 111.492 173.217C111.93 173.185 112.305 173.162 112.617 173.146C112.695 173.193 112.734 173.295 112.734 173.451C112.734 173.685 112.688 173.802 112.594 173.802C112.469 173.802 112.289 173.826 112.055 173.873C111.836 173.92 111.625 173.974 111.422 174.037C111.219 174.084 111.07 174.138 110.977 174.201C110.914 174.263 110.773 174.482 110.555 174.857C110.336 175.217 110.055 175.654 109.711 176.17C109.367 176.685 108.977 177.193 108.539 177.693C109.039 178.209 109.422 178.599 109.688 178.865C109.969 179.115 110.188 179.287 110.344 179.381C110.516 179.474 110.68 179.521 110.836 179.521C111.055 179.521 111.289 179.388 111.539 179.123C111.805 178.857 111.977 178.631 112.055 178.443C112.18 178.443 112.297 178.49 112.406 178.584C112.531 178.677 112.594 178.771 112.594 178.865C112.5 179.052 112.359 179.279 112.172 179.545C111.984 179.81 111.719 180.052 111.375 180.271C111.047 180.474 110.602 180.576 110.039 180.576C109.633 180.576 109.203 180.435 108.75 180.154C108.312 179.857 107.969 179.576 107.719 179.31L107.344 178.888C106.016 180.06 104.594 180.646 103.078 180.646ZM103.992 171.552C104.805 171.084 105.391 170.615 105.75 170.146C106.125 169.662 106.312 168.998 106.312 168.154C106.312 167.592 106.156 167.099 105.844 166.677C105.531 166.256 105.125 166.045 104.625 166.045C104.109 166.045 103.672 166.217 103.312 166.56C102.953 166.888 102.773 167.318 102.773 167.849C102.773 168.849 103.18 170.084 103.992 171.552ZM103.875 179.638C104.359 179.638 104.875 179.521 105.422 179.287C105.984 179.052 106.445 178.74 106.805 178.349C106.508 178.037 106.156 177.631 105.75 177.131C105.359 176.631 104.969 176.115 104.578 175.584C104.203 175.052 103.875 174.576 103.594 174.154L102.961 173.217C102.523 173.529 102.117 173.834 101.742 174.131C101.383 174.412 101.094 174.74 100.875 175.115C100.656 175.49 100.547 175.967 100.547 176.545C100.547 177.576 100.867 178.349 101.508 178.865C102.148 179.381 102.938 179.638 103.875 179.638ZM118.922 180.646C118.859 180.584 118.828 180.467 118.828 180.295C118.828 180.076 118.859 179.967 118.922 179.967C119.109 179.967 119.352 179.927 119.648 179.849C119.945 179.771 120.148 179.662 120.258 179.521C120.43 179.302 120.602 179.013 120.773 178.654C120.961 178.295 121.156 177.849 121.359 177.318L125.438 166.842C125.531 166.607 125.586 166.443 125.602 166.349C125.633 166.256 125.656 166.177 125.672 166.115C125.703 166.037 125.758 165.912 125.836 165.74C125.945 165.521 126.055 165.349 126.164 165.224C126.273 165.099 126.453 165.037 126.703 165.037L126.914 165.107L131.602 177.482C131.742 177.842 131.867 178.162 131.977 178.443C132.102 178.724 132.203 178.967 132.281 179.17C132.344 179.326 132.477 179.467 132.68 179.592C132.898 179.701 133.117 179.795 133.336 179.873C133.57 179.935 133.75 179.967 133.875 179.967C133.938 179.967 133.969 180.115 133.969 180.412C133.969 180.443 133.961 180.482 133.945 180.529C133.945 180.56 133.938 180.599 133.922 180.646C133.141 180.615 132.531 180.592 132.094 180.576C131.672 180.545 131.422 180.529 131.344 180.529L128.625 180.646C128.562 180.584 128.531 180.459 128.531 180.271C128.547 180.068 128.586 179.967 128.648 179.967C128.836 179.967 129.07 179.927 129.352 179.849C129.633 179.771 129.797 179.67 129.844 179.545C129.859 179.482 129.867 179.42 129.867 179.357C129.883 179.295 129.891 179.232 129.891 179.17C129.891 178.967 129.867 178.732 129.82 178.467C129.773 178.185 129.719 177.967 129.656 177.81L128.602 174.904C128.555 174.842 128.508 174.81 128.461 174.81C127.852 174.763 127.258 174.74 126.68 174.74C126.273 174.74 125.82 174.756 125.32 174.787C124.836 174.802 124.297 174.826 123.703 174.857L123.586 174.927L122.578 177.506C122.422 177.896 122.312 178.224 122.25 178.49C122.203 178.756 122.18 178.967 122.18 179.123C122.18 179.342 122.242 179.498 122.367 179.592C122.508 179.701 122.734 179.795 123.047 179.873C123.359 179.935 123.586 179.967 123.727 179.967C123.773 179.967 123.797 180.06 123.797 180.248C123.812 180.435 123.805 180.568 123.773 180.646L121.359 180.529C120.922 180.498 120.492 180.506 120.07 180.552C119.664 180.584 119.281 180.615 118.922 180.646ZM125.859 173.615C126.562 173.615 127.273 173.592 127.992 173.545L128.062 173.427L126.164 168.248L124.148 173.474C124.148 173.537 124.164 173.568 124.195 173.568C124.602 173.584 124.938 173.599 125.203 173.615C125.484 173.615 125.703 173.615 125.859 173.615ZM139.289 180.717C138.43 180.717 137.641 180.49 136.922 180.037C136.203 179.584 135.625 178.982 135.188 178.232C134.766 177.467 134.555 176.615 134.555 175.677C134.555 174.709 134.727 173.826 135.07 173.029C135.43 172.217 135.945 171.568 136.617 171.084C137.305 170.599 138.133 170.357 139.102 170.357C140.82 170.357 142.008 170.756 142.664 171.552C142.664 172.599 142.375 173.123 141.797 173.123C141.531 173.123 141.328 173.068 141.188 172.959C141.047 172.834 140.867 172.615 140.648 172.302C140.164 171.584 139.586 171.224 138.914 171.224C138.273 171.224 137.688 171.529 137.156 172.138C136.641 172.748 136.383 173.654 136.383 174.857C136.383 176.107 136.688 177.146 137.297 177.974C137.922 178.802 138.781 179.217 139.875 179.217C140.531 179.217 141.078 179.123 141.516 178.935C141.969 178.732 142.297 178.552 142.5 178.396L142.664 178.279C142.758 178.279 142.805 178.381 142.805 178.584C142.805 178.693 142.758 178.834 142.664 179.006C142.352 179.443 141.891 179.842 141.281 180.201C140.672 180.545 140.008 180.717 139.289 180.717ZM147.797 180.74C147.016 180.74 146.359 180.482 145.828 179.967C145.312 179.451 145.055 178.717 145.055 177.763V171.81H143.695C143.617 171.81 143.578 171.646 143.578 171.318C143.578 171.224 143.586 171.17 143.602 171.154C144.07 170.935 144.562 170.521 145.078 169.912C145.438 169.49 145.703 169.123 145.875 168.81C146.062 168.498 146.156 168.31 146.156 168.248C146.625 168.248 146.859 168.287 146.859 168.365V170.685L148.711 170.709H150.023C150.148 170.709 150.211 170.779 150.211 170.92C150.211 171.217 150.133 171.513 149.977 171.81H146.859V177.552C146.859 178.177 147.016 178.677 147.328 179.052C147.656 179.427 148.078 179.615 148.594 179.615C149.078 179.615 149.562 179.467 150.047 179.17C150.094 179.138 150.164 179.209 150.258 179.381C150.352 179.537 150.391 179.623 150.375 179.638C150.141 179.888 149.781 180.138 149.297 180.388C148.812 180.623 148.312 180.74 147.797 180.74ZM151.383 180.646C151.32 180.584 151.289 180.451 151.289 180.248C151.289 180.06 151.32 179.967 151.383 179.967C151.508 179.967 151.68 179.943 151.898 179.896C152.117 179.849 152.32 179.787 152.508 179.709C152.695 179.631 152.797 179.56 152.812 179.498C152.875 179.279 152.914 179.029 152.93 178.748C152.961 178.467 152.977 178.17 152.977 177.857V173.427C152.977 172.834 152.867 172.412 152.648 172.162C152.492 171.959 152.305 171.834 152.086 171.787C151.867 171.724 151.68 171.693 151.523 171.693C151.367 171.677 151.289 171.654 151.289 171.623C151.289 171.248 151.336 171.052 151.43 171.037C152.258 170.912 152.891 170.81 153.328 170.732C153.766 170.638 154.156 170.552 154.5 170.474L154.781 170.404C154.844 170.388 154.883 170.451 154.898 170.592C154.914 170.732 154.914 170.834 154.898 170.896C154.867 171.209 154.836 171.506 154.805 171.787C154.789 172.068 154.781 172.334 154.781 172.584V177.412C154.781 177.865 154.797 178.263 154.828 178.607C154.859 178.951 154.906 179.248 154.969 179.498C155 179.56 155.109 179.631 155.297 179.709C155.484 179.787 155.688 179.849 155.906 179.896C156.125 179.943 156.281 179.967 156.375 179.967C156.422 179.967 156.453 180.06 156.469 180.248C156.484 180.435 156.477 180.568 156.445 180.646L153.938 180.529L151.383 180.646ZM153.703 167.849C153.391 167.849 153.117 167.732 152.883 167.498C152.648 167.263 152.531 166.99 152.531 166.677C152.531 166.349 152.648 166.076 152.883 165.857C153.117 165.623 153.391 165.506 153.703 165.506C154.031 165.506 154.305 165.623 154.523 165.857C154.758 166.076 154.875 166.349 154.875 166.677C154.875 166.99 154.758 167.263 154.523 167.498C154.305 167.732 154.031 167.849 153.703 167.849ZM162.68 180.74C162.555 180.443 162.344 179.959 162.047 179.287C161.766 178.615 161.398 177.756 160.945 176.709C160.492 175.646 160.07 174.693 159.68 173.849C159.289 172.99 158.922 172.224 158.578 171.552C158.406 171.24 157.945 171.084 157.195 171.084C157.133 171.084 157.102 170.982 157.102 170.779C157.102 170.592 157.133 170.467 157.195 170.404C157.602 170.42 158.008 170.443 158.414 170.474C158.82 170.506 159.227 170.521 159.633 170.521C160.023 170.521 160.414 170.506 160.805 170.474C161.195 170.443 161.586 170.42 161.977 170.404C162.008 170.467 162.008 170.599 161.977 170.802C161.961 170.99 161.93 171.084 161.883 171.084C161.117 171.084 160.734 171.217 160.734 171.482C160.734 171.498 160.742 171.529 160.758 171.576C160.773 171.607 160.789 171.638 160.805 171.67L163.57 177.927L165.938 172.537C166.016 172.381 166.062 172.248 166.078 172.138C166.109 172.013 166.125 171.912 166.125 171.834C166.125 171.334 165.562 171.084 164.438 171.084C164.375 171.084 164.344 170.982 164.344 170.779C164.344 170.592 164.375 170.467 164.438 170.404C164.609 170.42 164.93 170.451 165.398 170.498C165.867 170.529 166.289 170.537 166.664 170.521L169.008 170.404C169.039 170.529 169.055 170.646 169.055 170.756C169.055 170.974 169 171.084 168.891 171.084C168.672 171.084 168.383 171.146 168.023 171.271C167.664 171.396 167.422 171.599 167.297 171.881L163.57 180.295C163.461 180.545 163.297 180.701 163.078 180.763C162.859 180.842 162.727 180.834 162.68 180.74ZM174.305 180.717C173.445 180.717 172.656 180.49 171.938 180.037C171.219 179.584 170.641 178.982 170.203 178.232C169.781 177.467 169.57 176.615 169.57 175.677C169.57 174.584 169.773 173.638 170.18 172.842C170.586 172.045 171.141 171.435 171.844 171.013C172.547 170.576 173.336 170.357 174.211 170.357C174.93 170.357 175.562 170.498 176.109 170.779C176.656 171.045 177.078 171.388 177.375 171.81C177.656 172.248 177.859 172.693 177.984 173.146C178.125 173.584 178.195 174.021 178.195 174.459C178.195 174.771 178.148 174.967 178.055 175.045C177.961 175.107 177.781 175.138 177.516 175.138H171.609C171.484 175.138 171.422 175.177 171.422 175.256C171.422 175.912 171.555 176.545 171.82 177.154C172.086 177.748 172.477 178.24 172.992 178.631C173.508 179.021 174.141 179.217 174.891 179.217C175.547 179.217 176.094 179.123 176.531 178.935C176.984 178.732 177.312 178.552 177.516 178.396L177.68 178.279C177.773 178.279 177.82 178.381 177.82 178.584C177.82 178.693 177.773 178.834 177.68 179.006C177.367 179.443 176.906 179.842 176.297 180.201C175.688 180.545 175.023 180.717 174.305 180.717ZM171.609 174.154H176.18C176.258 174.154 176.297 174.076 176.297 173.92C176.297 173.576 176.203 173.201 176.016 172.795C175.844 172.373 175.578 172.006 175.219 171.693C174.859 171.381 174.406 171.224 173.859 171.224C173.359 171.224 172.93 171.396 172.57 171.74C172.211 172.068 171.938 172.451 171.75 172.888C171.562 173.31 171.469 173.677 171.469 173.99C171.469 174.099 171.516 174.154 171.609 174.154ZM54.0586 196.611C54.0352 196.588 54.0234 196.517 54.0234 196.4C54.0234 196.299 54.0352 196.248 54.0586 196.248C54.1367 196.248 54.2305 196.236 54.3398 196.213C54.457 196.189 54.5664 196.162 54.668 196.131C54.7773 196.092 54.8438 196.049 54.8672 196.002C54.9219 195.916 54.9492 195.549 54.9492 194.9V190.47C54.9492 190.244 54.9414 190.045 54.9258 189.873C54.918 189.701 54.8984 189.564 54.8672 189.463C54.8516 189.416 54.7891 189.373 54.6797 189.334C54.5781 189.295 54.4648 189.263 54.3398 189.24C54.2227 189.217 54.1289 189.205 54.0586 189.205C54.0273 189.205 54.0117 189.158 54.0117 189.064C54.0117 188.963 54.0273 188.896 54.0586 188.865L55.4648 188.888C55.582 188.888 55.7109 188.888 55.8516 188.888C55.9922 188.881 56.1406 188.873 56.2969 188.865C56.4531 188.857 56.6016 188.853 56.7422 188.853C56.8828 188.845 57.0078 188.842 57.1172 188.842C57.375 188.842 57.6367 188.881 57.9023 188.959C58.168 189.037 58.4219 189.154 58.6641 189.31C58.9141 189.467 59.1133 189.689 59.2617 189.978C59.418 190.267 59.4961 190.603 59.4961 190.986C59.4961 191.228 59.4453 191.486 59.3438 191.76C59.2422 192.033 59.0898 192.291 58.8867 192.533C58.6914 192.767 58.4414 192.959 58.1367 193.107C57.8398 193.256 57.4961 193.33 57.1055 193.33C56.668 193.33 56.3672 193.22 56.2031 193.002C56.1562 192.947 56.1445 192.857 56.168 192.732C56.1836 192.693 56.1953 192.681 56.2031 192.697C56.4453 192.783 56.707 192.826 56.9883 192.826C57.2539 192.826 57.4922 192.752 57.7031 192.603C57.9219 192.447 58.0938 192.244 58.2188 191.994C58.3516 191.736 58.418 191.459 58.418 191.162C58.418 190.607 58.2969 190.17 58.0547 189.849C57.8125 189.521 57.4375 189.357 56.9297 189.357C56.5703 189.357 56.2969 189.385 56.1094 189.439C56.0391 189.447 55.9961 189.568 55.9805 189.802C55.9727 190.037 55.9688 190.345 55.9688 190.728V194.912C55.9688 195.427 56 195.767 56.0625 195.931C56.0938 195.994 56.168 196.052 56.2852 196.107C56.4102 196.162 56.543 196.205 56.6836 196.236C56.8242 196.26 56.9258 196.271 56.9883 196.271C57.0195 196.271 57.0352 196.326 57.0352 196.435C57.0352 196.49 57.0273 196.549 57.0117 196.611C56.6211 196.595 56.2969 196.584 56.0391 196.576C55.7891 196.56 55.6055 196.552 55.4883 196.552L54.0586 196.611ZM60.3633 196.611C60.332 196.58 60.3164 196.513 60.3164 196.412C60.3164 196.318 60.332 196.271 60.3633 196.271C60.4258 196.271 60.5117 196.26 60.6211 196.236C60.7305 196.213 60.832 196.181 60.9258 196.142C61.0195 196.103 61.0703 196.068 61.0781 196.037C61.1094 195.927 61.1289 195.802 61.1367 195.662C61.1523 195.521 61.1602 195.373 61.1602 195.217V193.002C61.1602 192.705 61.1055 192.494 60.9961 192.369C60.918 192.275 60.8242 192.213 60.7148 192.181C60.6133 192.15 60.5195 192.135 60.4336 192.135C60.3555 192.127 60.3164 192.115 60.3164 192.099C60.3164 191.912 60.3398 191.814 60.3867 191.806C61.2383 191.674 61.7305 191.588 61.8633 191.549L62.0625 191.49C62.0938 191.482 62.1133 191.513 62.1211 191.584C62.1289 191.654 62.1289 191.705 62.1211 191.736L62.0508 192.322C62.1914 192.111 62.3828 191.916 62.625 191.736C62.875 191.549 63.1211 191.455 63.3633 191.455C63.8164 191.455 64.1211 191.568 64.2773 191.795C64.2773 192.068 64.2344 192.267 64.1484 192.392C64.0625 192.517 63.957 192.58 63.832 192.58C63.6914 192.58 63.5625 192.513 63.4453 192.381C63.3281 192.248 63.168 192.181 62.9648 192.181C62.8086 192.181 62.6602 192.236 62.5195 192.345C62.3789 192.447 62.2656 192.58 62.1797 192.744C62.1016 192.9 62.0625 193.064 62.0625 193.236V194.994C62.0625 195.22 62.0703 195.42 62.0859 195.592C62.1016 195.763 62.125 195.912 62.1562 196.037C62.1719 196.068 62.2266 196.103 62.3203 196.142C62.4141 196.181 62.5156 196.213 62.625 196.236C62.7422 196.26 62.8242 196.271 62.8711 196.271C62.8945 196.271 62.9102 196.318 62.918 196.412C62.9258 196.506 62.9219 196.572 62.9062 196.611L61.6406 196.552L60.3633 196.611ZM66.082 196.658C65.7227 196.658 65.4258 196.564 65.1914 196.377C64.957 196.181 64.8398 195.892 64.8398 195.51C64.8398 195.041 65.1445 194.65 65.7539 194.338C66.0195 194.205 66.2812 194.099 66.5391 194.021C66.8047 193.943 67.0703 193.853 67.3359 193.752C67.4062 193.728 67.4414 193.67 67.4414 193.576V192.697C67.4414 192.447 67.3633 192.256 67.207 192.123C67.0508 191.982 66.8633 191.912 66.6445 191.912C66.4102 191.912 66.2148 191.994 66.0586 192.158C65.9023 192.314 65.8242 192.521 65.8242 192.779C65.8242 193.052 65.6641 193.189 65.3438 193.189C65.1172 193.189 64.9648 193.115 64.8867 192.967C64.8867 192.802 64.9531 192.635 65.0859 192.463C65.2266 192.283 65.4062 192.119 65.625 191.97C65.8438 191.822 66.082 191.701 66.3398 191.607C66.6055 191.513 66.8672 191.467 67.125 191.467C67.5547 191.467 67.8633 191.572 68.0508 191.783C68.2383 191.986 68.332 192.318 68.332 192.779V195.486C68.332 195.65 68.375 195.787 68.4609 195.896C68.5469 196.006 68.6641 196.06 68.8125 196.06C68.9141 196.06 69.0508 196.006 69.2227 195.896C69.2539 195.896 69.2695 195.927 69.2695 195.99C69.2695 196.092 69.25 196.174 69.2109 196.236C68.8906 196.51 68.6172 196.646 68.3906 196.646C68.2109 196.646 68.0391 196.572 67.875 196.424C67.7109 196.275 67.5977 196.119 67.5352 195.955C67.4961 195.986 67.4453 196.029 67.3828 196.084C67.3281 196.131 67.2812 196.17 67.2422 196.201C67.0781 196.326 66.8984 196.435 66.7031 196.529C66.5156 196.615 66.3086 196.658 66.082 196.658ZM66.5273 195.99C66.7461 195.99 66.9531 195.927 67.1484 195.802C67.3438 195.677 67.4414 195.545 67.4414 195.404V194.197C67.2383 194.275 67.043 194.345 66.8555 194.408C66.6758 194.47 66.5312 194.521 66.4219 194.56C66.2812 194.615 66.1445 194.713 66.0117 194.853C65.8867 194.994 65.8242 195.154 65.8242 195.334C65.8242 195.568 65.8945 195.736 66.0352 195.838C66.1836 195.939 66.3477 195.99 66.5273 195.99ZM69.4102 196.611C69.4023 196.58 69.3945 196.552 69.3867 196.529C69.3867 196.498 69.3867 196.47 69.3867 196.447C69.3867 196.33 69.4023 196.271 69.4336 196.271C69.9648 196.185 70.3164 196.021 70.4883 195.779L71.6719 194.197C71.7031 194.142 71.7188 194.107 71.7188 194.092C71.7188 194.06 71.707 194.029 71.6836 193.998L70.4883 192.24C70.4414 192.17 70.3594 192.103 70.2422 192.041C70.125 191.978 70 191.927 69.8672 191.888C69.7344 191.849 69.6211 191.83 69.5273 191.83C69.5039 191.767 69.4922 191.713 69.4922 191.666C69.4922 191.595 69.5078 191.537 69.5391 191.49L70.7109 191.549L71.9414 191.49C71.9492 191.513 71.9531 191.56 71.9531 191.631C71.9531 191.763 71.9414 191.83 71.918 191.83C71.6055 191.83 71.4492 191.896 71.4492 192.029C71.4492 192.06 71.4688 192.107 71.5078 192.17L72.2695 193.353C72.3789 193.174 72.4766 193.021 72.5625 192.896C72.6562 192.771 72.7305 192.67 72.7852 192.592C72.8477 192.498 72.9062 192.396 72.9609 192.287C73.0156 192.177 73.043 192.095 73.043 192.041C73.043 191.963 73 191.912 72.9141 191.888C72.8281 191.865 72.7344 191.853 72.6328 191.853C72.5312 191.845 72.457 191.838 72.4102 191.83C72.3867 191.814 72.375 191.752 72.375 191.642C72.375 191.572 72.3867 191.521 72.4102 191.49L73.6406 191.549L74.707 191.49C74.7148 191.529 74.7188 191.564 74.7188 191.595C74.7266 191.619 74.7305 191.638 74.7305 191.654C74.7305 191.771 74.7188 191.83 74.6953 191.83C74.1719 191.892 73.832 192.025 73.6758 192.228L72.5977 193.635C72.5508 193.689 72.5273 193.74 72.5273 193.787C72.5273 193.834 72.543 193.877 72.5742 193.916L73.8164 195.756C74.0195 196.06 74.3477 196.232 74.8008 196.271C74.8242 196.271 74.8359 196.326 74.8359 196.435C74.8359 196.521 74.8203 196.58 74.7891 196.611L73.6875 196.552L72.3867 196.611C72.3789 196.572 72.3711 196.541 72.3633 196.517C72.3633 196.486 72.3633 196.467 72.3633 196.459C72.3633 196.334 72.375 196.271 72.3984 196.271C72.7266 196.248 72.8906 196.177 72.8906 196.06C72.8906 196.037 72.8828 196.013 72.8672 195.99L71.9766 194.584L71.168 195.791C71.1133 195.869 71.0859 195.943 71.0859 196.013C71.0859 196.084 71.1445 196.146 71.2617 196.201C71.3789 196.248 71.5156 196.271 71.6719 196.271H71.7305C71.7539 196.271 71.7656 196.33 71.7656 196.447C71.7656 196.525 71.75 196.58 71.7188 196.611L70.5469 196.552L69.4102 196.611ZM75.2344 196.611C75.2031 196.58 75.1875 196.513 75.1875 196.412C75.1875 196.318 75.2031 196.271 75.2344 196.271C75.2969 196.271 75.3828 196.26 75.4922 196.236C75.6016 196.213 75.7031 196.181 75.7969 196.142C75.8906 196.103 75.9414 196.068 75.9492 196.037C75.9805 195.927 76 195.802 76.0078 195.662C76.0234 195.521 76.0312 195.373 76.0312 195.217V193.002C76.0312 192.705 75.9766 192.494 75.8672 192.369C75.7891 192.267 75.6953 192.205 75.5859 192.181C75.4766 192.15 75.3828 192.135 75.3047 192.135C75.2266 192.127 75.1875 192.115 75.1875 192.099C75.1875 191.912 75.2109 191.814 75.2578 191.806C75.6719 191.744 75.9883 191.693 76.207 191.654C76.4258 191.607 76.6211 191.564 76.793 191.525L76.9336 191.49C76.9648 191.482 76.9844 191.513 76.9922 191.584C77 191.654 77 191.705 76.9922 191.736C76.9766 191.892 76.9609 192.041 76.9453 192.181C76.9375 192.322 76.9336 192.455 76.9336 192.58V194.994C76.9336 195.22 76.9414 195.42 76.957 195.592C76.9727 195.763 76.9961 195.912 77.0273 196.037C77.043 196.068 77.0977 196.103 77.1914 196.142C77.2852 196.181 77.3867 196.213 77.4961 196.236C77.6055 196.26 77.6836 196.271 77.7305 196.271C77.7539 196.271 77.7695 196.318 77.7773 196.412C77.7852 196.506 77.7812 196.572 77.7656 196.611L76.5117 196.552L75.2344 196.611ZM76.3945 190.213C76.2383 190.213 76.1016 190.154 75.9844 190.037C75.8672 189.92 75.8086 189.783 75.8086 189.627C75.8086 189.463 75.8672 189.326 75.9844 189.217C76.1016 189.099 76.2383 189.041 76.3945 189.041C76.5586 189.041 76.6953 189.099 76.8047 189.217C76.9219 189.326 76.9805 189.463 76.9805 189.627C76.9805 189.783 76.9219 189.92 76.8047 190.037C76.6953 190.154 76.5586 190.213 76.3945 190.213ZM80.168 196.705C79.9258 196.705 79.707 196.677 79.5117 196.623C79.3164 196.568 79.0781 196.521 78.7969 196.482C78.7656 196.396 78.7344 196.279 78.7031 196.131C78.6719 195.982 78.6445 195.826 78.6211 195.662C78.6055 195.498 78.5977 195.365 78.5977 195.263C78.6602 195.217 78.707 195.193 78.7383 195.193C78.8555 195.193 78.918 195.217 78.9258 195.263C78.957 195.42 79.0352 195.576 79.1602 195.732C79.2852 195.888 79.4375 196.021 79.6172 196.131C79.7969 196.232 79.9805 196.283 80.168 196.283C80.418 196.283 80.6211 196.217 80.7773 196.084C80.9414 195.943 81.0234 195.744 81.0234 195.486C81.0234 195.213 80.918 194.986 80.707 194.806C80.543 194.674 80.4023 194.58 80.2852 194.525C80.1758 194.463 80.0664 194.408 79.957 194.361C79.8555 194.306 79.7266 194.232 79.5703 194.138C78.9609 193.787 78.6562 193.369 78.6562 192.885C78.6562 192.603 78.7344 192.357 78.8906 192.146C79.0469 191.927 79.2539 191.76 79.5117 191.642C79.7773 191.517 80.0586 191.455 80.3555 191.455C80.4414 191.455 80.5391 191.463 80.6484 191.478C80.7578 191.486 80.8789 191.498 81.0117 191.513C81.1445 191.537 81.2539 191.556 81.3398 191.572C81.4258 191.588 81.4961 191.599 81.5508 191.607C81.6367 191.967 81.6836 192.365 81.6914 192.802C81.6914 192.842 81.6406 192.861 81.5391 192.861C81.4297 192.861 81.3711 192.834 81.3633 192.779C81.3242 192.56 81.2109 192.353 81.0234 192.158C80.8438 191.963 80.6367 191.865 80.4023 191.865C79.8398 191.865 79.5586 192.095 79.5586 192.556C79.5586 192.674 79.5703 192.779 79.5938 192.873C79.625 192.959 79.6914 193.041 79.793 193.119C80.0352 193.306 80.3203 193.494 80.6484 193.681C80.9844 193.869 81.2617 194.045 81.4805 194.209C81.8086 194.459 81.9727 194.752 81.9727 195.088C81.9727 195.392 81.8906 195.67 81.7266 195.92C81.5625 196.162 81.3438 196.353 81.0703 196.494C80.7969 196.635 80.4961 196.705 80.168 196.705ZM85.3594 196.611C85.3359 196.588 85.3203 196.525 85.3125 196.424C85.3125 196.322 85.3281 196.271 85.3594 196.271C85.4219 196.271 85.5039 196.26 85.6055 196.236C85.707 196.213 85.8008 196.181 85.8867 196.142C85.9805 196.103 86.0312 196.068 86.0391 196.037C86.0781 195.881 86.1055 195.717 86.1211 195.545C86.1445 195.373 86.1562 195.189 86.1562 194.994V192.299C86.1562 192.244 86.1367 192.217 86.0977 192.217H85.4766C85.4531 192.217 85.4414 192.193 85.4414 192.146C85.4414 192.076 85.5 191.978 85.6172 191.853C85.7422 191.728 85.8789 191.666 86.0273 191.666H86.0977C86.1367 191.666 86.1562 191.642 86.1562 191.595V191.443C86.1562 191.029 86.2227 190.642 86.3555 190.283C86.4883 189.924 86.6641 189.603 86.8828 189.322C87.1094 189.041 87.3594 188.822 87.6328 188.666C87.9141 188.51 88.1992 188.431 88.4883 188.431C89.0586 188.431 89.4297 188.584 89.6016 188.888C89.6016 189.381 89.4609 189.627 89.1797 189.627C89.0938 189.627 89.0156 189.592 88.9453 189.521C88.875 189.443 88.8008 189.357 88.7227 189.263C88.6523 189.162 88.5664 189.076 88.4648 189.006C88.3711 188.927 88.2578 188.888 88.125 188.888C87.8984 188.888 87.7031 188.986 87.5391 189.181C87.375 189.377 87.25 189.635 87.1641 189.955C87.0859 190.275 87.0469 190.627 87.0469 191.01V191.607C87.0469 191.646 87.0664 191.666 87.1055 191.666H88.4062C88.4453 191.666 88.4648 191.693 88.4648 191.748C88.4648 191.873 88.418 192.029 88.3242 192.217H87.1172C87.0703 192.217 87.0469 192.24 87.0469 192.287V194.994C87.0469 195.416 87.082 195.763 87.1523 196.037C87.168 196.068 87.2188 196.103 87.3047 196.142C87.3906 196.181 87.4844 196.213 87.5859 196.236C87.6875 196.26 87.7617 196.271 87.8086 196.271C87.832 196.271 87.8477 196.318 87.8555 196.412C87.8633 196.506 87.8594 196.572 87.8438 196.611L86.5898 196.552L85.3594 196.611ZM92.8359 196.67C92.7734 196.67 92.7422 196.607 92.7422 196.482V195.885C92.7422 195.845 92.7344 195.826 92.7188 195.826C92.2031 196.381 91.6914 196.658 91.1836 196.658C90.8164 196.658 90.5234 196.552 90.3047 196.342C90.0938 196.123 89.9414 195.849 89.8477 195.521C89.7617 195.185 89.7188 194.838 89.7188 194.478V193.002C89.7188 192.705 89.6641 192.494 89.5547 192.369C89.4766 192.275 89.3828 192.213 89.2734 192.181C89.1719 192.15 89.0781 192.135 88.9922 192.135C88.9141 192.127 88.875 192.115 88.875 192.099C88.875 191.912 88.8984 191.814 88.9453 191.806C89.3594 191.744 89.6914 191.689 89.9414 191.642C90.1992 191.588 90.3477 191.556 90.3867 191.549L90.6211 191.49C90.6523 191.482 90.6719 191.513 90.6797 191.584C90.6875 191.654 90.6875 191.705 90.6797 191.736C90.6328 192.111 90.6094 192.4 90.6094 192.603V194.185C90.6094 194.787 90.6992 195.232 90.8789 195.521C91.0586 195.802 91.3516 195.943 91.7578 195.943C91.9141 195.943 92.0664 195.9 92.2148 195.814C92.3711 195.728 92.4961 195.627 92.5898 195.51C92.6914 195.385 92.7422 195.279 92.7422 195.193V193.002C92.7422 192.705 92.6875 192.494 92.5781 192.369C92.5 192.275 92.4062 192.213 92.2969 192.181C92.1953 192.15 92.1016 192.131 92.0156 192.123C91.9375 192.115 91.8984 192.107 91.8984 192.099C91.8984 191.912 91.9219 191.814 91.9688 191.806C92.3828 191.744 92.6914 191.693 92.8945 191.654C93.1055 191.615 93.2734 191.58 93.3984 191.549L93.6445 191.49C93.6758 191.482 93.6953 191.513 93.7031 191.584C93.7109 191.654 93.7109 191.705 93.7031 191.736C93.6562 192.111 93.6328 192.392 93.6328 192.58V194.924C93.6328 195.275 93.6602 195.572 93.7148 195.814C93.7383 195.892 93.8008 195.943 93.9023 195.967C94.0039 195.982 94.1211 195.998 94.2539 196.013L94.4062 196.025C94.4297 196.033 94.4414 196.076 94.4414 196.154C94.4414 196.177 94.4297 196.217 94.4062 196.271C94.3906 196.318 94.3711 196.342 94.3477 196.342C94.1133 196.357 93.8555 196.4 93.5742 196.47C93.293 196.533 93.082 196.592 92.9414 196.646L92.8359 196.67ZM92.625 190.67C92.4766 190.67 92.3438 190.615 92.2266 190.506C92.1172 190.388 92.0625 190.256 92.0625 190.107C92.0625 189.951 92.1172 189.818 92.2266 189.709C92.3438 189.599 92.4766 189.545 92.625 189.545C92.7812 189.545 92.9141 189.599 93.0234 189.709C93.1406 189.818 93.1992 189.951 93.1992 190.107C93.1992 190.256 93.1406 190.388 93.0234 190.506C92.9141 190.615 92.7812 190.67 92.625 190.67ZM90.5039 190.67C90.3555 190.67 90.2227 190.615 90.1055 190.506C89.9883 190.388 89.9297 190.256 89.9297 190.107C89.9297 189.951 89.9883 189.818 90.1055 189.709C90.2227 189.599 90.3555 189.545 90.5039 189.545C90.6602 189.545 90.793 189.599 90.9023 189.709C91.0117 189.818 91.0664 189.951 91.0664 190.107C91.0664 190.256 91.0117 190.388 90.9023 190.506C90.793 190.615 90.6602 190.67 90.5039 190.67ZM95.0273 196.611C94.9961 196.58 94.9805 196.513 94.9805 196.412C94.9805 196.318 94.9961 196.271 95.0273 196.271C95.0898 196.271 95.1758 196.26 95.2852 196.236C95.3945 196.213 95.4961 196.181 95.5898 196.142C95.6836 196.103 95.7344 196.068 95.7422 196.037C95.7734 195.927 95.793 195.802 95.8008 195.662C95.8164 195.521 95.8242 195.373 95.8242 195.217V193.002C95.8242 192.705 95.7695 192.494 95.6602 192.369C95.582 192.275 95.4883 192.213 95.3789 192.181C95.2773 192.15 95.1836 192.135 95.0977 192.135C95.0195 192.127 94.9805 192.115 94.9805 192.099C94.9805 191.912 95.0039 191.814 95.0508 191.806C95.9023 191.674 96.3945 191.588 96.5273 191.549L96.7266 191.49C96.7578 191.482 96.7773 191.513 96.7852 191.584C96.793 191.654 96.793 191.705 96.7852 191.736L96.7148 192.322C96.8555 192.111 97.0469 191.916 97.2891 191.736C97.5391 191.549 97.7852 191.455 98.0273 191.455C98.4805 191.455 98.7852 191.568 98.9414 191.795C98.9414 192.068 98.8984 192.267 98.8125 192.392C98.7266 192.517 98.6211 192.58 98.4961 192.58C98.3555 192.58 98.2266 192.513 98.1094 192.381C97.9922 192.248 97.832 192.181 97.6289 192.181C97.4727 192.181 97.3242 192.236 97.1836 192.345C97.043 192.447 96.9297 192.58 96.8438 192.744C96.7656 192.9 96.7266 193.064 96.7266 193.236V194.994C96.7266 195.22 96.7344 195.42 96.75 195.592C96.7656 195.763 96.7891 195.912 96.8203 196.037C96.8359 196.068 96.8906 196.103 96.9844 196.142C97.0781 196.181 97.1797 196.213 97.2891 196.236C97.4062 196.26 97.4883 196.271 97.5352 196.271C97.5586 196.271 97.5742 196.318 97.582 196.412C97.5898 196.506 97.5859 196.572 97.5703 196.611L96.3047 196.552L95.0273 196.611ZM102.246 196.611C102.223 196.588 102.211 196.517 102.211 196.4C102.211 196.299 102.223 196.248 102.246 196.248C102.324 196.248 102.418 196.236 102.527 196.213C102.645 196.189 102.754 196.162 102.855 196.131C102.965 196.092 103.031 196.049 103.055 196.002C103.109 195.916 103.137 195.549 103.137 194.9V190.47C103.137 190.244 103.129 190.045 103.113 189.873C103.105 189.701 103.086 189.564 103.055 189.463C103.039 189.416 102.977 189.373 102.867 189.334C102.766 189.295 102.652 189.263 102.527 189.24C102.41 189.217 102.316 189.205 102.246 189.205C102.215 189.205 102.199 189.158 102.199 189.064C102.199 188.963 102.215 188.896 102.246 188.865L103.652 188.888C103.77 188.888 103.898 188.888 104.039 188.888C104.18 188.881 104.328 188.873 104.484 188.865C104.641 188.857 104.789 188.853 104.93 188.853C105.07 188.845 105.195 188.842 105.305 188.842C105.562 188.842 105.824 188.881 106.09 188.959C106.355 189.037 106.609 189.154 106.852 189.31C107.102 189.467 107.301 189.689 107.449 189.978C107.605 190.267 107.684 190.603 107.684 190.986C107.684 191.228 107.633 191.486 107.531 191.76C107.43 192.033 107.277 192.291 107.074 192.533C106.879 192.767 106.629 192.959 106.324 193.107C106.027 193.256 105.684 193.33 105.293 193.33C104.855 193.33 104.555 193.22 104.391 193.002C104.344 192.947 104.332 192.857 104.355 192.732C104.371 192.693 104.383 192.681 104.391 192.697C104.633 192.783 104.895 192.826 105.176 192.826C105.441 192.826 105.68 192.752 105.891 192.603C106.109 192.447 106.281 192.244 106.406 191.994C106.539 191.736 106.605 191.459 106.605 191.162C106.605 190.607 106.484 190.17 106.242 189.849C106 189.521 105.625 189.357 105.117 189.357C104.758 189.357 104.484 189.385 104.297 189.439C104.227 189.447 104.184 189.568 104.168 189.802C104.16 190.037 104.156 190.345 104.156 190.728V194.912C104.156 195.427 104.188 195.767 104.25 195.931C104.281 195.994 104.355 196.052 104.473 196.107C104.598 196.162 104.73 196.205 104.871 196.236C105.012 196.26 105.113 196.271 105.176 196.271C105.207 196.271 105.223 196.326 105.223 196.435C105.223 196.49 105.215 196.549 105.199 196.611C104.809 196.595 104.484 196.584 104.227 196.576C103.977 196.56 103.793 196.552 103.676 196.552L102.246 196.611ZM108.375 196.611C108.344 196.58 108.328 196.513 108.328 196.412C108.328 196.318 108.344 196.271 108.375 196.271C108.438 196.271 108.523 196.26 108.633 196.236C108.742 196.213 108.844 196.181 108.938 196.142C109.031 196.103 109.082 196.068 109.09 196.037C109.145 195.826 109.172 195.556 109.172 195.228V190.142C109.172 189.877 109.148 189.627 109.102 189.392C109.07 189.267 108.871 189.205 108.504 189.205H108.398C108.352 189.205 108.328 189.162 108.328 189.076C108.328 188.951 108.352 188.888 108.398 188.888C108.797 188.849 109.133 188.787 109.406 188.701C109.68 188.607 109.867 188.533 109.969 188.478L110.027 188.443H110.051C110.082 188.443 110.113 188.467 110.145 188.513C110.176 188.552 110.195 188.592 110.203 188.631C110.117 188.888 110.074 189.228 110.074 189.65V192.217C110.074 192.248 110.082 192.263 110.098 192.263C110.105 192.263 110.117 192.256 110.133 192.24C110.25 192.115 110.398 191.994 110.578 191.877C110.766 191.752 110.965 191.65 111.176 191.572C111.387 191.486 111.586 191.443 111.773 191.443C112.297 191.443 112.672 191.631 112.898 192.006C113.125 192.381 113.238 192.959 113.238 193.74V195.006C113.238 195.224 113.246 195.42 113.262 195.592C113.277 195.763 113.301 195.912 113.332 196.037C113.348 196.068 113.402 196.103 113.496 196.142C113.59 196.181 113.691 196.213 113.801 196.236C113.91 196.26 113.988 196.271 114.035 196.271C114.059 196.271 114.074 196.318 114.082 196.412C114.09 196.506 114.086 196.572 114.07 196.611L112.816 196.552L111.586 196.611C111.555 196.58 111.539 196.513 111.539 196.412C111.539 196.318 111.555 196.271 111.586 196.271C111.648 196.271 111.73 196.26 111.832 196.236C111.934 196.213 112.027 196.181 112.113 196.142C112.199 196.103 112.246 196.068 112.254 196.037C112.285 195.927 112.305 195.802 112.312 195.662C112.328 195.521 112.336 195.373 112.336 195.217V193.974C112.336 193.49 112.293 193.119 112.207 192.861C112.121 192.595 111.988 192.412 111.809 192.31C111.629 192.209 111.398 192.158 111.117 192.158C110.961 192.158 110.801 192.205 110.637 192.299C110.48 192.385 110.348 192.486 110.238 192.603C110.129 192.72 110.074 192.826 110.074 192.92V194.994C110.074 195.22 110.082 195.42 110.098 195.592C110.113 195.763 110.137 195.912 110.168 196.037C110.184 196.068 110.238 196.103 110.332 196.142C110.426 196.181 110.527 196.213 110.637 196.236C110.746 196.26 110.824 196.271 110.871 196.271C110.895 196.271 110.91 196.318 110.918 196.412C110.926 196.506 110.922 196.572 110.906 196.611L109.652 196.552L108.375 196.611ZM115.383 199.236C115.219 199.236 115.098 199.185 115.02 199.084C114.941 198.982 114.902 198.881 114.902 198.779C114.902 198.615 114.957 198.49 115.066 198.404C115.715 198.404 116.145 198.068 116.355 197.396C116.395 197.279 116.441 197.138 116.496 196.974C116.551 196.81 116.594 196.677 116.625 196.576L114.949 192.474C114.91 192.381 114.871 192.302 114.832 192.24C114.793 192.17 114.754 192.115 114.715 192.076C114.645 192.006 114.535 191.947 114.387 191.9C114.246 191.853 114.133 191.83 114.047 191.83C114.016 191.83 114 191.779 114 191.677C114 191.584 114.016 191.521 114.047 191.49C114.258 191.498 114.465 191.51 114.668 191.525C114.879 191.533 115.094 191.537 115.312 191.537C115.562 191.537 115.777 191.533 115.957 191.525C116.137 191.51 116.301 191.498 116.449 191.49C116.465 191.552 116.473 191.611 116.473 191.666C116.473 191.775 116.457 191.83 116.426 191.83C116.395 191.83 116.336 191.842 116.25 191.865C116.172 191.888 116.094 191.92 116.016 191.959C115.938 191.99 115.891 192.029 115.875 192.076V192.099C115.875 192.232 116.293 193.252 117.129 195.158L118.02 192.592C118.074 192.435 118.102 192.314 118.102 192.228C118.102 192.111 118.039 192.017 117.914 191.947C117.797 191.869 117.637 191.83 117.434 191.83C117.402 191.83 117.387 191.779 117.387 191.677C117.387 191.584 117.402 191.521 117.434 191.49C117.535 191.498 117.688 191.51 117.891 191.525C118.094 191.541 118.289 191.549 118.477 191.549C118.648 191.549 118.836 191.541 119.039 191.525C119.242 191.51 119.395 191.498 119.496 191.49C119.512 191.552 119.52 191.611 119.52 191.666C119.52 191.775 119.504 191.83 119.473 191.83C119.371 191.83 119.234 191.865 119.062 191.935C118.891 192.006 118.773 192.119 118.711 192.275L116.613 197.935C116.434 198.42 116.23 198.756 116.004 198.943C115.777 199.138 115.57 199.236 115.383 199.236ZM121.348 196.705C121.105 196.705 120.887 196.677 120.691 196.623C120.496 196.568 120.258 196.521 119.977 196.482C119.945 196.396 119.914 196.279 119.883 196.131C119.852 195.982 119.824 195.826 119.801 195.662C119.785 195.498 119.777 195.365 119.777 195.263C119.84 195.217 119.887 195.193 119.918 195.193C120.035 195.193 120.098 195.217 120.105 195.263C120.137 195.42 120.215 195.576 120.34 195.732C120.465 195.888 120.617 196.021 120.797 196.131C120.977 196.232 121.16 196.283 121.348 196.283C121.598 196.283 121.801 196.217 121.957 196.084C122.121 195.943 122.203 195.744 122.203 195.486C122.203 195.213 122.098 194.986 121.887 194.806C121.723 194.674 121.582 194.58 121.465 194.525C121.355 194.463 121.246 194.408 121.137 194.361C121.035 194.306 120.906 194.232 120.75 194.138C120.141 193.787 119.836 193.369 119.836 192.885C119.836 192.603 119.914 192.357 120.07 192.146C120.227 191.927 120.434 191.76 120.691 191.642C120.957 191.517 121.238 191.455 121.535 191.455C121.621 191.455 121.719 191.463 121.828 191.478C121.938 191.486 122.059 191.498 122.191 191.513C122.324 191.537 122.434 191.556 122.52 191.572C122.605 191.588 122.676 191.599 122.73 191.607C122.816 191.967 122.863 192.365 122.871 192.802C122.871 192.842 122.82 192.861 122.719 192.861C122.609 192.861 122.551 192.834 122.543 192.779C122.504 192.56 122.391 192.353 122.203 192.158C122.023 191.963 121.816 191.865 121.582 191.865C121.02 191.865 120.738 192.095 120.738 192.556C120.738 192.674 120.75 192.779 120.773 192.873C120.805 192.959 120.871 193.041 120.973 193.119C121.215 193.306 121.5 193.494 121.828 193.681C122.164 193.869 122.441 194.045 122.66 194.209C122.988 194.459 123.152 194.752 123.152 195.088C123.152 195.392 123.07 195.67 122.906 195.92C122.742 196.162 122.523 196.353 122.25 196.494C121.977 196.635 121.676 196.705 121.348 196.705ZM123.926 196.611C123.895 196.58 123.879 196.513 123.879 196.412C123.879 196.318 123.895 196.271 123.926 196.271C123.988 196.271 124.074 196.26 124.184 196.236C124.293 196.213 124.395 196.181 124.488 196.142C124.582 196.103 124.633 196.068 124.641 196.037C124.672 195.927 124.691 195.802 124.699 195.662C124.715 195.521 124.723 195.373 124.723 195.217V193.002C124.723 192.705 124.668 192.494 124.559 192.369C124.48 192.267 124.387 192.205 124.277 192.181C124.168 192.15 124.074 192.135 123.996 192.135C123.918 192.127 123.879 192.115 123.879 192.099C123.879 191.912 123.902 191.814 123.949 191.806C124.363 191.744 124.68 191.693 124.898 191.654C125.117 191.607 125.312 191.564 125.484 191.525L125.625 191.49C125.656 191.482 125.676 191.513 125.684 191.584C125.691 191.654 125.691 191.705 125.684 191.736C125.668 191.892 125.652 192.041 125.637 192.181C125.629 192.322 125.625 192.455 125.625 192.58V194.994C125.625 195.22 125.633 195.42 125.648 195.592C125.664 195.763 125.688 195.912 125.719 196.037C125.734 196.068 125.789 196.103 125.883 196.142C125.977 196.181 126.078 196.213 126.188 196.236C126.297 196.26 126.375 196.271 126.422 196.271C126.445 196.271 126.461 196.318 126.469 196.412C126.477 196.506 126.473 196.572 126.457 196.611L125.203 196.552L123.926 196.611ZM125.086 190.213C124.93 190.213 124.793 190.154 124.676 190.037C124.559 189.92 124.5 189.783 124.5 189.627C124.5 189.463 124.559 189.326 124.676 189.217C124.793 189.099 124.93 189.041 125.086 189.041C125.25 189.041 125.387 189.099 125.496 189.217C125.613 189.326 125.672 189.463 125.672 189.627C125.672 189.783 125.613 189.92 125.496 190.037C125.387 190.154 125.25 190.213 125.086 190.213ZM129.809 196.658C129.34 196.658 128.91 196.541 128.52 196.306C128.129 196.072 127.816 195.756 127.582 195.357C127.355 194.959 127.242 194.521 127.242 194.045C127.242 193.56 127.352 193.123 127.57 192.732C127.797 192.342 128.102 192.033 128.484 191.806C128.867 191.572 129.301 191.455 129.785 191.455C130.254 191.455 130.68 191.572 131.062 191.806C131.453 192.041 131.762 192.353 131.988 192.744C132.223 193.135 132.34 193.568 132.34 194.045C132.34 194.521 132.227 194.959 132 195.357C131.773 195.756 131.469 196.072 131.086 196.306C130.711 196.541 130.285 196.658 129.809 196.658ZM129.914 196.201C130.195 196.201 130.441 196.111 130.652 195.931C130.863 195.752 131.027 195.51 131.145 195.205C131.27 194.9 131.332 194.568 131.332 194.209C131.332 193.787 131.254 193.404 131.098 193.06C130.941 192.709 130.734 192.431 130.477 192.228C130.227 192.017 129.953 191.912 129.656 191.912C129.383 191.912 129.137 192.002 128.918 192.181C128.707 192.353 128.543 192.588 128.426 192.885C128.309 193.174 128.25 193.502 128.25 193.869C128.25 194.291 128.324 194.681 128.473 195.041C128.629 195.392 128.832 195.674 129.082 195.885C129.34 196.095 129.617 196.201 129.914 196.201ZM135.094 196.658C134.703 196.658 134.375 196.529 134.109 196.271C133.852 196.013 133.723 195.646 133.723 195.17V192.193H133.043C133.004 192.193 132.984 192.111 132.984 191.947C132.984 191.9 132.988 191.873 132.996 191.865C133.23 191.756 133.477 191.549 133.734 191.244C133.914 191.033 134.047 190.849 134.133 190.693C134.227 190.537 134.273 190.443 134.273 190.412C134.508 190.412 134.625 190.431 134.625 190.47V191.631L135.551 191.642H136.207C136.27 191.642 136.301 191.677 136.301 191.748C136.301 191.896 136.262 192.045 136.184 192.193H134.625V195.064C134.625 195.377 134.703 195.627 134.859 195.814C135.023 196.002 135.234 196.095 135.492 196.095C135.734 196.095 135.977 196.021 136.219 195.873C136.242 195.857 136.277 195.892 136.324 195.978C136.371 196.056 136.391 196.099 136.383 196.107C136.266 196.232 136.086 196.357 135.844 196.482C135.602 196.599 135.352 196.658 135.094 196.658ZM136.723 196.611C136.691 196.58 136.676 196.513 136.676 196.412C136.676 196.318 136.691 196.271 136.723 196.271C136.785 196.271 136.871 196.26 136.98 196.236C137.09 196.213 137.191 196.181 137.285 196.142C137.379 196.103 137.43 196.068 137.438 196.037C137.492 195.826 137.52 195.556 137.52 195.228V190.142C137.52 189.877 137.496 189.627 137.449 189.392C137.418 189.267 137.219 189.205 136.852 189.205H136.746C136.699 189.205 136.676 189.162 136.676 189.076C136.676 188.951 136.699 188.888 136.746 188.888C137.145 188.849 137.48 188.787 137.754 188.701C138.027 188.607 138.215 188.533 138.316 188.478L138.375 188.443H138.398C138.43 188.443 138.461 188.467 138.492 188.513C138.523 188.552 138.543 188.592 138.551 188.631C138.465 188.888 138.422 189.228 138.422 189.65V192.217C138.422 192.248 138.43 192.263 138.445 192.263C138.453 192.263 138.465 192.256 138.48 192.24C138.598 192.115 138.746 191.994 138.926 191.877C139.113 191.752 139.312 191.65 139.523 191.572C139.734 191.486 139.934 191.443 140.121 191.443C140.645 191.443 141.02 191.631 141.246 192.006C141.473 192.381 141.586 192.959 141.586 193.74V195.006C141.586 195.224 141.594 195.42 141.609 195.592C141.625 195.763 141.648 195.912 141.68 196.037C141.695 196.068 141.75 196.103 141.844 196.142C141.938 196.181 142.039 196.213 142.148 196.236C142.258 196.26 142.336 196.271 142.383 196.271C142.406 196.271 142.422 196.318 142.43 196.412C142.438 196.506 142.434 196.572 142.418 196.611L141.164 196.552L139.934 196.611C139.902 196.58 139.887 196.513 139.887 196.412C139.887 196.318 139.902 196.271 139.934 196.271C139.996 196.271 140.078 196.26 140.18 196.236C140.281 196.213 140.375 196.181 140.461 196.142C140.547 196.103 140.594 196.068 140.602 196.037C140.633 195.927 140.652 195.802 140.66 195.662C140.676 195.521 140.684 195.373 140.684 195.217V193.974C140.684 193.49 140.641 193.119 140.555 192.861C140.469 192.595 140.336 192.412 140.156 192.31C139.977 192.209 139.746 192.158 139.465 192.158C139.309 192.158 139.148 192.205 138.984 192.299C138.828 192.385 138.695 192.486 138.586 192.603C138.477 192.72 138.422 192.826 138.422 192.92V194.994C138.422 195.22 138.43 195.42 138.445 195.592C138.461 195.763 138.484 195.912 138.516 196.037C138.531 196.068 138.586 196.103 138.68 196.142C138.773 196.181 138.875 196.213 138.984 196.236C139.094 196.26 139.172 196.271 139.219 196.271C139.242 196.271 139.258 196.318 139.266 196.412C139.273 196.506 139.27 196.572 139.254 196.611L138 196.552L136.723 196.611ZM145.477 196.646C145.047 196.646 144.652 196.533 144.293 196.306C143.934 196.08 143.645 195.779 143.426 195.404C143.215 195.021 143.109 194.595 143.109 194.127C143.109 193.58 143.211 193.107 143.414 192.709C143.617 192.31 143.895 192.006 144.246 191.795C144.598 191.576 144.992 191.467 145.43 191.467C145.789 191.467 146.105 191.537 146.379 191.677C146.652 191.81 146.863 191.982 147.012 192.193C147.152 192.412 147.254 192.635 147.316 192.861C147.387 193.08 147.422 193.299 147.422 193.517C147.422 193.674 147.398 193.771 147.352 193.81C147.305 193.842 147.215 193.857 147.082 193.857H144.129C144.066 193.857 144.035 193.877 144.035 193.916C144.035 194.244 144.102 194.56 144.234 194.865C144.367 195.162 144.562 195.408 144.82 195.603C145.078 195.799 145.395 195.896 145.77 195.896C146.098 195.896 146.371 195.849 146.59 195.756C146.816 195.654 146.98 195.564 147.082 195.486L147.164 195.427C147.211 195.427 147.234 195.478 147.234 195.58C147.234 195.635 147.211 195.705 147.164 195.791C147.008 196.01 146.777 196.209 146.473 196.388C146.168 196.56 145.836 196.646 145.477 196.646ZM144.129 193.365H146.414C146.453 193.365 146.473 193.326 146.473 193.248C146.473 193.076 146.426 192.888 146.332 192.685C146.246 192.474 146.113 192.291 145.934 192.135C145.754 191.978 145.527 191.9 145.254 191.9C145.004 191.9 144.789 191.986 144.609 192.158C144.43 192.322 144.293 192.513 144.199 192.732C144.105 192.943 144.059 193.127 144.059 193.283C144.059 193.338 144.082 193.365 144.129 193.365ZM148.148 196.611C148.117 196.58 148.102 196.513 148.102 196.412C148.102 196.318 148.117 196.271 148.148 196.271C148.211 196.271 148.297 196.26 148.406 196.236C148.516 196.213 148.617 196.181 148.711 196.142C148.805 196.103 148.855 196.068 148.863 196.037C148.895 195.927 148.914 195.802 148.922 195.662C148.938 195.521 148.945 195.373 148.945 195.217V193.002C148.945 192.705 148.891 192.494 148.781 192.369C148.703 192.275 148.609 192.213 148.5 192.181C148.398 192.15 148.305 192.135 148.219 192.135C148.141 192.127 148.102 192.115 148.102 192.099C148.102 191.912 148.125 191.814 148.172 191.806C149.023 191.674 149.516 191.588 149.648 191.549L149.848 191.49C149.879 191.482 149.898 191.513 149.906 191.584C149.914 191.654 149.914 191.705 149.906 191.736L149.836 192.322C149.977 192.111 150.168 191.916 150.41 191.736C150.66 191.549 150.906 191.455 151.148 191.455C151.602 191.455 151.906 191.568 152.062 191.795C152.062 192.068 152.02 192.267 151.934 192.392C151.848 192.517 151.742 192.58 151.617 192.58C151.477 192.58 151.348 192.513 151.23 192.381C151.113 192.248 150.953 192.181 150.75 192.181C150.594 192.181 150.445 192.236 150.305 192.345C150.164 192.447 150.051 192.58 149.965 192.744C149.887 192.9 149.848 193.064 149.848 193.236V194.994C149.848 195.22 149.855 195.42 149.871 195.592C149.887 195.763 149.91 195.912 149.941 196.037C149.957 196.068 150.012 196.103 150.105 196.142C150.199 196.181 150.301 196.213 150.41 196.236C150.527 196.26 150.609 196.271 150.656 196.271C150.68 196.271 150.695 196.318 150.703 196.412C150.711 196.506 150.707 196.572 150.691 196.611L149.426 196.552L148.148 196.611ZM153.867 196.658C153.508 196.658 153.211 196.564 152.977 196.377C152.742 196.181 152.625 195.892 152.625 195.51C152.625 195.041 152.93 194.65 153.539 194.338C153.805 194.205 154.066 194.099 154.324 194.021C154.59 193.943 154.855 193.853 155.121 193.752C155.191 193.728 155.227 193.67 155.227 193.576V192.697C155.227 192.447 155.148 192.256 154.992 192.123C154.836 191.982 154.648 191.912 154.43 191.912C154.195 191.912 154 191.994 153.844 192.158C153.688 192.314 153.609 192.521 153.609 192.779C153.609 193.052 153.449 193.189 153.129 193.189C152.902 193.189 152.75 193.115 152.672 192.967C152.672 192.802 152.738 192.635 152.871 192.463C153.012 192.283 153.191 192.119 153.41 191.97C153.629 191.822 153.867 191.701 154.125 191.607C154.391 191.513 154.652 191.467 154.91 191.467C155.34 191.467 155.648 191.572 155.836 191.783C156.023 191.986 156.117 192.318 156.117 192.779V195.486C156.117 195.65 156.16 195.787 156.246 195.896C156.332 196.006 156.449 196.06 156.598 196.06C156.699 196.06 156.836 196.006 157.008 195.896C157.039 195.896 157.055 195.927 157.055 195.99C157.055 196.092 157.035 196.174 156.996 196.236C156.676 196.51 156.402 196.646 156.176 196.646C155.996 196.646 155.824 196.572 155.66 196.424C155.496 196.275 155.383 196.119 155.32 195.955C155.281 195.986 155.23 196.029 155.168 196.084C155.113 196.131 155.066 196.17 155.027 196.201C154.863 196.326 154.684 196.435 154.488 196.529C154.301 196.615 154.094 196.658 153.867 196.658ZM154.312 195.99C154.531 195.99 154.738 195.927 154.934 195.802C155.129 195.677 155.227 195.545 155.227 195.404V194.197C155.023 194.275 154.828 194.345 154.641 194.408C154.461 194.47 154.316 194.521 154.207 194.56C154.066 194.615 153.93 194.713 153.797 194.853C153.672 194.994 153.609 195.154 153.609 195.334C153.609 195.568 153.68 195.736 153.82 195.838C153.969 195.939 154.133 195.99 154.312 195.99ZM157.371 199.224C157.34 199.193 157.324 199.131 157.324 199.037C157.324 198.935 157.34 198.885 157.371 198.885C157.434 198.885 157.52 198.873 157.629 198.849C157.738 198.826 157.84 198.795 157.934 198.756C158.027 198.717 158.078 198.681 158.086 198.65C158.117 198.541 158.137 198.416 158.145 198.275C158.16 198.135 158.168 197.986 158.168 197.83V192.99C158.168 192.693 158.113 192.482 158.004 192.357C157.926 192.263 157.832 192.201 157.723 192.17C157.621 192.138 157.527 192.123 157.441 192.123C157.363 192.115 157.324 192.103 157.324 192.088C157.324 191.9 157.348 191.802 157.395 191.795C158.223 191.67 158.754 191.572 158.988 191.502L159.07 191.478C159.109 191.478 159.125 191.521 159.117 191.607C159.109 191.685 159.102 191.752 159.094 191.806L159.082 191.877C159.16 191.822 159.27 191.763 159.41 191.701C159.551 191.638 159.699 191.584 159.855 191.537C160.02 191.49 160.16 191.467 160.277 191.467C160.809 191.467 161.25 191.588 161.602 191.83C161.961 192.064 162.227 192.365 162.398 192.732C162.578 193.092 162.668 193.459 162.668 193.834C162.668 194.209 162.598 194.568 162.457 194.912C162.316 195.248 162.125 195.549 161.883 195.814C161.641 196.08 161.363 196.291 161.051 196.447C160.746 196.595 160.43 196.67 160.102 196.67C159.859 196.67 159.676 196.65 159.551 196.611C159.426 196.58 159.281 196.525 159.117 196.447C159.086 196.478 159.07 196.529 159.07 196.599V197.607C159.07 197.834 159.078 198.033 159.094 198.205C159.109 198.377 159.133 198.525 159.164 198.65C159.18 198.681 159.234 198.717 159.328 198.756C159.422 198.795 159.523 198.826 159.633 198.849C159.742 198.873 159.82 198.885 159.867 198.885C159.891 198.885 159.906 198.931 159.914 199.025C159.922 199.127 159.918 199.193 159.902 199.224L158.648 199.166L157.371 199.224ZM160.148 196.177C160.461 196.177 160.727 196.084 160.945 195.896C161.172 195.701 161.348 195.451 161.473 195.146C161.598 194.834 161.66 194.506 161.66 194.162C161.66 193.724 161.578 193.349 161.414 193.037C161.258 192.717 161.047 192.47 160.781 192.299C160.516 192.127 160.223 192.041 159.902 192.041C159.66 192.041 159.461 192.107 159.305 192.24C159.148 192.365 159.07 192.549 159.07 192.791V195.427C159.07 195.638 159.184 195.818 159.41 195.967C159.637 196.107 159.883 196.177 160.148 196.177ZM163.535 196.611C163.504 196.58 163.488 196.513 163.488 196.412C163.488 196.318 163.504 196.271 163.535 196.271C163.598 196.271 163.684 196.26 163.793 196.236C163.902 196.213 164.004 196.181 164.098 196.142C164.191 196.103 164.242 196.068 164.25 196.037C164.281 195.927 164.301 195.802 164.309 195.662C164.324 195.521 164.332 195.373 164.332 195.217V193.002C164.332 192.705 164.277 192.494 164.168 192.369C164.09 192.267 163.996 192.205 163.887 192.181C163.777 192.15 163.684 192.135 163.605 192.135C163.527 192.127 163.488 192.115 163.488 192.099C163.488 191.912 163.512 191.814 163.559 191.806C163.973 191.744 164.289 191.693 164.508 191.654C164.727 191.607 164.922 191.564 165.094 191.525L165.234 191.49C165.266 191.482 165.285 191.513 165.293 191.584C165.301 191.654 165.301 191.705 165.293 191.736C165.277 191.892 165.262 192.041 165.246 192.181C165.238 192.322 165.234 192.455 165.234 192.58V194.994C165.234 195.22 165.242 195.42 165.258 195.592C165.273 195.763 165.297 195.912 165.328 196.037C165.344 196.068 165.398 196.103 165.492 196.142C165.586 196.181 165.688 196.213 165.797 196.236C165.906 196.26 165.984 196.271 166.031 196.271C166.055 196.271 166.07 196.318 166.078 196.412C166.086 196.506 166.082 196.572 166.066 196.611L164.812 196.552L163.535 196.611ZM164.695 190.213C164.539 190.213 164.402 190.154 164.285 190.037C164.168 189.92 164.109 189.783 164.109 189.627C164.109 189.463 164.168 189.326 164.285 189.217C164.402 189.099 164.539 189.041 164.695 189.041C164.859 189.041 164.996 189.099 165.105 189.217C165.223 189.326 165.281 189.463 165.281 189.627C165.281 189.783 165.223 189.92 165.105 190.037C164.996 190.154 164.859 190.213 164.695 190.213ZM169.219 196.646C168.789 196.646 168.395 196.533 168.035 196.306C167.676 196.08 167.387 195.779 167.168 195.404C166.957 195.021 166.852 194.595 166.852 194.127C166.852 193.58 166.953 193.107 167.156 192.709C167.359 192.31 167.637 192.006 167.988 191.795C168.34 191.576 168.734 191.467 169.172 191.467C169.531 191.467 169.848 191.537 170.121 191.677C170.395 191.81 170.605 191.982 170.754 192.193C170.895 192.412 170.996 192.635 171.059 192.861C171.129 193.08 171.164 193.299 171.164 193.517C171.164 193.674 171.141 193.771 171.094 193.81C171.047 193.842 170.957 193.857 170.824 193.857H167.871C167.809 193.857 167.777 193.877 167.777 193.916C167.777 194.244 167.844 194.56 167.977 194.865C168.109 195.162 168.305 195.408 168.562 195.603C168.82 195.799 169.137 195.896 169.512 195.896C169.84 195.896 170.113 195.849 170.332 195.756C170.559 195.654 170.723 195.564 170.824 195.486L170.906 195.427C170.953 195.427 170.977 195.478 170.977 195.58C170.977 195.635 170.953 195.705 170.906 195.791C170.75 196.01 170.52 196.209 170.215 196.388C169.91 196.56 169.578 196.646 169.219 196.646ZM167.871 193.365H170.156C170.195 193.365 170.215 193.326 170.215 193.248C170.215 193.076 170.168 192.888 170.074 192.685C169.988 192.474 169.855 192.291 169.676 192.135C169.496 191.978 169.27 191.9 168.996 191.9C168.746 191.9 168.531 191.986 168.352 192.158C168.172 192.322 168.035 192.513 167.941 192.732C167.848 192.943 167.801 193.127 167.801 193.283C167.801 193.338 167.824 193.365 167.871 193.365Z" fill="white"/>
</svg>
